999
dxfrw 0.6.3
  0
SECTION
  2
HEADER
  9
$ACADVER
  1
AC1021
  9
$DWGCODEPAGE
  3
ANSI_1252
  9
$INSBASE
 10
0
 20
0
 30
0
  9
$EXTMIN
 10
-16.22513692382145
 20
3.499999999999993
 30
0
  9
$EXTMAX
 10
188.8000000000001
 20
258.9791088685401
 30
0
  9
$LIMMIN
 10
0
 20
0
  9
$LIMMAX
 10
420
 20
297
  9
$ORTHOMODE
 70
    0
  9
$REGENMODE
 70
    1
  9
$FILLMODE
 70
    1
  9
$QTEXTMODE
 70
    0
  9
$MIRRTEXT
 70
    0
  9
$LTSCALE
 40
1
  9
$ATTMODE
 70
    0
  9
$TEXTSIZE
 40
2.5
  9
$TRACEWID
 40
15.68
  9
$TEXTSTYLE
  7
STANDARD
  9
$CLAYER
  8
chassis
  9
$CELTYPE
  6
BYLAYER
  9
$CECOLOR
 62
  256
  9
$CELTSCALE
 40
1
  9
$DISPSILH
 70
    0
  9
$DIMSCALE
 40
2.5
  9
$DIMASZ
 40
2.5
  9
$DIMEXO
 40
0.625
  9
$DIMDLI
 40
3.75
  9
$DIMRND
 40
0
  9
$DIMDLE
 40
0
  9
$DIMEXE
 40
1.25
  9
$DIMTP
 40
0
  9
$DIMTM
 40
0
  9
$DIMTXT
 40
2.5
  9
$DIMCEN
 40
2.5
  9
$DIMTSZ
 40
0
  9
$DIMTOL
 70
    0
  9
$DIMLIM
 70
    0
  9
$DIMTIH
 70
    0
  9
$DIMTOH
 70
    0
  9
$DIMSE1
 70
    0
  9
$DIMSE2
 70
    0
  9
$DIMTAD
 70
    1
  9
$DIMZIN
 70
    8
  9
$DIMBLK
  1

  9
$DIMASO
 70
    1
  9
$DIMSHO
 70
    1
  9
$DIMPOST
  1

  9
$DIMAPOST
  1

  9
$DIMALT
 70
    0
  9
$DIMALTD
 70
    3
  9
$DIMALTF
 40
0.03937
  9
$DIMLFAC
 40
1
  9
$DIMTOFL
 70
    1
  9
$DIMTVP
 40
0
  9
$DIMTIX
 70
    0
  9
$DIMSOXD
 70
    0
  9
$DIMSAH
 70
    0
  9
$DIMBLK1
  1

  9
$DIMBLK2
  1

  9
$DIMSTYLE
  2
STANDARD
  9
$DIMCLRD
 70
    0
  9
$DIMCLRE
 70
    0
  9
$DIMCLRT
 70
    0
  9
$DIMTFAC
 40
1
  9
$DIMGAP
 40
0.625
  9
$DIMJUST
 70
    0
  9
$DIMSD1
 70
    0
  9
$DIMSD2
 70
    0
  9
$DIMTOLJ
 70
    0
  9
$DIMTZIN
 70
    8
  9
$DIMALTZ
 70
    0
  9
$DIMALTTZ
 70
    0
  9
$DIMUPT
 70
    0
  9
$DIMDEC
 70
    2
  9
$DIMTDEC
 70
    2
  9
$DIMALTU
 70
    2
  9
$DIMALTTD
 70
    3
  9
$DIMTXSTY
  7
STANDARD
  9
$DIMAUNIT
 70
    0
  9
$DIMADEC
 70
    0
  9
$DIMALTRND
 40
0
  9
$DIMAZIN
 70
    0
  9
$DIMDSEP
 70
   44
  9
$DIMATFIT
 70
    3
  9
$DIMFRAC
 70
    0
  9
$DIMLDRBLK
  1
STANDARD
  9
$DIMLUNIT
 70
    2
  9
$DIMLWD
 70
   -2
  9
$DIMLWE
 70
   -2
  9
$DIMTMOVE
 70
    0
  9
$DIMFXL
 40
1
  9
$DIMFXLON
 70
    0
  9
$DIMJOGANG
 40
0.7854
  9
$DIMTFILL
 70
    0
  9
$DIMTFILLCLR
 70
    0
  9
$DIMARCSYM
 70
    0
  9
$DIMLTYPE
  6

  9
$DIMLTEX1
  6

  9
$DIMLTEX2
  6

  9
$LUNITS
 70
    2
  9
$LUPREC
 70
    4
  9
$SKETCHINC
 40
1
  9
$FILLETRAD
 40
0
  9
$AUNITS
 70
    0
  9
$AUPREC
 70
    2
  9
$MENU
  1
.
  9
$ELEVATION
 40
0
  9
$PELEVATION
 40
0
  9
$THICKNESS
 40
0
  9
$LIMCHECK
 70
    0
  9
$CHAMFERA
 40
0
  9
$CHAMFERB
 40
0
  9
$CHAMFERC
 40
0
  9
$CHAMFERD
 40
0
  9
$SKPOLY
 70
    0
  9
$USRTIMER
 70
    1
  9
$ANGBASE
 50
0
  9
$ANGDIR
 70
    0
  9
$PDMODE
 70
   34
  9
$PDSIZE
 40
0
  9
$PLINEWID
 40
0
  9
$SPLFRAME
 70
    0
  9
$SPLINETYPE
 70
    2
  9
$SPLINESEGS
 70
    8
  9
$HANDSEED
  5
20000
  9
$SURFTAB1
 70
    6
  9
$SURFTAB2
 70
    6
  9
$SURFTYPE
 70
    6
  9
$SURFU
 70
    6
  9
$SURFV
 70
    6
  9
$UCSBASE
  2

  9
$UCSNAME
  2

  9
$UCSORG
 10
0
 20
0
 30
0
  9
$UCSXDIR
 10
1
 20
0
 30
0
  9
$UCSYDIR
 10
0
 20
1
 30
0
  9
$UCSORTHOREF
  2

  9
$UCSORTHOVIEW
 70
    0
  9
$UCSORGTOP
 10
0
 20
0
 30
0
  9
$UCSORGBOTTOM
 10
0
 20
0
 30
0
  9
$UCSORGLEFT
 10
0
 20
0
 30
0
  9
$UCSORGRIGHT
 10
0
 20
0
 30
0
  9
$UCSORGFRONT
 10
0
 20
0
 30
0
  9
$UCSORGBACK
 10
0
 20
0
 30
0
  9
$PUCSBASE
  2

  9
$PUCSNAME
  2

  9
$PUCSORG
 10
0
 20
0
 30
0
  9
$PUCSXDIR
 10
1
 20
0
 30
0
  9
$PUCSYDIR
 10
0
 20
1
 30
0
  9
$PUCSORTHOREF
  2

  9
$PUCSORTHOVIEW
 70
    0
  9
$PUCSORGTOP
 10
0
 20
0
 30
0
  9
$PUCSORGBOTTOM
 10
0
 20
0
 30
0
  9
$PUCSORGLEFT
 10
0
 20
0
 30
0
  9
$PUCSORGRIGHT
 10
0
 20
0
 30
0
  9
$PUCSORGFRONT
 10
0
 20
0
 30
0
  9
$PUCSORGBACK
 10
0
 20
0
 30
0
  9
$USERI1
 70
    0
  9
$USERI2
 70
    0
  9
$USERI3
 70
    0
  9
$USERI4
 70
    0
  9
$USERI5
 70
    0
  9
$USERR1
 40
0
  9
$USERR2
 40
0
  9
$USERR3
 40
0
  9
$USERR4
 40
0
  9
$USERR5
 40
0
  9
$WORLDVIEW
 70
    1
  9
$SHADEDGE
 70
    3
  9
$SHADEDIF
 70
   70
  9
$TILEMODE
 70
    1
  9
$MAXACTVP
 70
   64
  9
$PINSBASE
 10
0
 20
0
 30
0
  9
$PLIMCHECK
 70
    0
  9
$PEXTMIN
 10
0
 20
0
 30
0
  9
$PEXTMAX
 10
0
 20
0
 30
0
  9
$GRIDMODE
 70
    1
  9
$SNAPSTYLE
 70
    0
  9
$PLIMMIN
 10
0
 20
0
  9
$PLIMMAX
 10
210
 20
297
  9
$UNITMODE
 70
    0
  9
$VISRETAIN
 70
    1
  9
$PLINEGEN
 70
    0
  9
$PSLTSCALE
 70
    1
  9
$TREEDEPTH
 70
 3020
  9
$CMLSTYLE
  2
Standard
  9
$CMLJUST
 70
    0
  9
$CMLSCALE
 40
20
  9
$PROXYGRAPHICS
 70
    1
  9
$MEASUREMENT
 70
    1
  9
$CELWEIGHT
370
   -1
  9
$ENDCAPS
280
    0
  9
$JOINSTYLE
280
    0
  9
$LWDISPLAY
290
    0
  9
$INSUNITS
 70
    4
  9
$HYPERLINKBASE
  1

  9
$STYLESHEET
  1

  9
$XEDIT
290
    1
  9
$CEPSNTYPE
380
    0
  9
$PSTYLEMODE
290
    1
  9
$EXTNAMES
290
    1
  9
$PSVPSCALE
 40
1
  9
$OLESTARTUP
290
    0
  9
$SORTENTS
280
  127
  9
$INDEXCTL
280
    0
  9
$HIDETEXT
280
    1
  9
$XCLIPFRAME
290
    0
  9
$HALOGAP
280
    0
  9
$OBSCOLOR
 70
  257
  9
$OBSLTYPE
280
    0
  9
$INTERSECTIONDISPLAY
280
    0
  9
$INTERSECTIONCOLOR
 70
  257
  9
$DIMASSOC
280
    1
  9
$PROJECTNAME
  1

  9
$CAMERADISPLAY
290
    0
  9
$LENSLENGTH
 40
50
  9
$CAMERAHEIGHT
 40
0
  9
$STEPSPERSEC
 40
2
  9
$STEPSIZE
 40
50
  9
$3DDWFPREC
 40
2
  9
$PSOLWIDTH
 40
5
  9
$PSOLHEIGHT
 40
80
  9
$LOFTANG1
 40
1.570796326794897
  9
$LOFTANG2
 40
1.570796326794897
  9
$LOFTMAG1
 40
0
  9
$LOFTMAG2
 40
0
  9
$LOFTPARAM
 70
    7
  9
$LOFTNORMALS
280
    1
  9
$LATITUDE
 40
1
  9
$LONGITUDE
 40
1
  9
$NORTHDIRECTION
 40
0
  9
$TIMEZONE
 70
-8000
  9
$LIGHTGLYPHDISPLAY
280
    1
  9
$TILEMODELIGHTSYNCH
280
    1
  9
$SOLIDHIST
280
    1
  9
$SHOWHIST
280
    1
  9
$DWFFRAME
280
    2
  9
$DGNFRAME
280
    0
  9
$REALWORLDSCALE
290
    1
  9
$INTERFERECOLOR
 62
    1
  9
$CSHADOW
280
    0
  9
$SHADOWPLANELOCATION
 40
0
  0
ENDSEC
  0
SECTION
  2
CLASSES
  0
ENDSEC
  0
SECTION
  2
TABLES
  0
TABLE
  2
VPORT
  5
8
330
0
100
AcDbSymbolTable
 70
    1
  0
VPORT
  5
31
330
2
100
AcDbSymbolTableRecord
100
AcDbViewportTableRecord
  2
*ACTIVE
 70
    0
 10
0
 20
0
 11
1
 21
1
 12
114.7833298215461
 22
139.8335282165627
 13
0
 23
0
 14
10
 24
10
 15
10
 25
10
 16
0
 26
0
 36
1
 17
0
 27
0
 37
0
 40
111.1737911479125
 41
1.645454545454546
 42
50
 43
0
 44
0
 50
0
 51
0
 71
    0
 72
  100
 73
    1
 74
    3
 75
    0
 76
    1
 77
    0
 78
    0
281
    0
 65
    1
110
0
120
0
130
0
111
1
121
0
131
0
112
0
122
1
132
0
 79
    0
146
0
348
10020
 60
    7
 61
    5
292
1
282
    1
141
0
142
0
 63
  250
421
3358443
  0
ENDTAB
  0
TABLE
  2
LTYPE
  5
5
330
0
100
AcDbSymbolTable
 70
    4
  0
LTYPE
  5
14
330
5
100
AcDbSymbolTableRecord
100
AcDbLinetypeTableRecord
  2
ByBlock
 70
    0
  3

 72
   65
 73
    0
 40
0
  0
LTYPE
  5
15
330
5
100
AcDbSymbolTableRecord
100
AcDbLinetypeTableRecord
  2
ByLayer
 70
    0
  3

 72
   65
 73
    0
 40
0
  0
LTYPE
  5
16
330
5
100
AcDbSymbolTableRecord
100
AcDbLinetypeTableRecord
  2
Continuous
 70
    0
  3
Solid line
 72
   65
 73
    0
 40
0
  0
LTYPE
  5
32
330
5
100
AcDbSymbolTableRecord
100
AcDbLinetypeTableRecord
  2
DOT
 70
    0
  3
Dot . . . . . . . . . . . . . . . . . . . . . .
 72
   65
 73
    2
 40
6.35
 49
0
 74
    0
 49
-6.35
 74
    0
  0
LTYPE
  5
33
330
5
100
AcDbSymbolTableRecord
100
AcDbLinetypeTableRecord
  2
DOTTINY
 70
    0
  3
Dot (.15x) .....................................
 72
   65
 73
    2
 40
0.9525
 49
0
 74
    0
 49
-0.9525
 74
    0
  0
LTYPE
  5
34
330
5
100
AcDbSymbolTableRecord
100
AcDbLinetypeTableRecord
  2
DOT2
 70
    0
  3
Dot (.5x) .....................................
 72
   65
 73
    2
 40
3.175
 49
0
 74
    0
 49
-3.175
 74
    0
  0
LTYPE
  5
35
330
5
100
AcDbSymbolTableRecord
100
AcDbLinetypeTableRecord
  2
DOTX2
 70
    0
  3
Dot (2x) .  .  .  .  .  .  .  .  .  .  .  .  .
 72
   65
 73
    2
 40
12.7
 49
0
 74
    0
 49
-12.7
 74
    0
  0
LTYPE
  5
36
330
5
100
AcDbSymbolTableRecord
100
AcDbLinetypeTableRecord
  2
DASHED
 70
    0
  3
Dashed _ _ _ _ _ _ _ _ _ _ _ _ _ _ _ _ _
 72
   65
 73
    2
 40
19.05
 49
12.7
 74
    0
 49
-6.35
 74
    0
  0
LTYPE
  5
37
330
5
100
AcDbSymbolTableRecord
100
AcDbLinetypeTableRecord
  2
DASHEDTINY
 70
    0
  3
Dashed (.15x) _ _ _ _ _ _ _ _ _ _ _ _ _ _ _ _ _
 72
   65
 73
    2
 40
2.8575
 49
1.905
 74
    0
 49
-0.9525
 74
    0
  0
LTYPE
  5
38
330
5
100
AcDbSymbolTableRecord
100
AcDbLinetypeTableRecord
  2
DASHED2
 70
    0
  3
Dashed (.5x) _ _ _ _ _ _ _ _ _ _ _ _ _ _ _ _ _
 72
   65
 73
    2
 40
9.524999999999999
 49
6.35
 74
    0
 49
-3.175
 74
    0
  0
LTYPE
  5
39
330
5
100
AcDbSymbolTableRecord
100
AcDbLinetypeTableRecord
  2
DASHEDX2
 70
    0
  3
Dashed (2x) ____  ____  ____  ____  ____  ___
 72
   65
 73
    2
 40
38.09999999999999
 49
25.4
 74
    0
 49
-12.7
 74
    0
  0
LTYPE
  5
3A
330
5
100
AcDbSymbolTableRecord
100
AcDbLinetypeTableRecord
  2
DASHDOT
 70
    0
  3
Dash dot __ . __ . __ . __ . __ . __ . __ . __
 72
   65
 73
    4
 40
25.4
 49
12.7
 74
    0
 49
-6.35
 74
    0
 49
0
 74
    0
 49
-6.35
 74
    0
  0
LTYPE
  5
3B
330
5
100
AcDbSymbolTableRecord
100
AcDbLinetypeTableRecord
  2
DASHDOTTINY
 70
    0
  3
Dash dot (.15x) _._._._._._._._._._._._._._._.
 72
   65
 73
    4
 40
3.81
 49
1.905
 74
    0
 49
-0.9525
 74
    0
 49
0
 74
    0
 49
-0.9525
 74
    0
  0
LTYPE
  5
3C
330
5
100
AcDbSymbolTableRecord
100
AcDbLinetypeTableRecord
  2
DASHDOT2
 70
    0
  3
Dash dot (.5x) _._._._._._._._._._._._._._._.
 72
   65
 73
    4
 40
12.7
 49
6.35
 74
    0
 49
-3.175
 74
    0
 49
0
 74
    0
 49
-3.175
 74
    0
  0
LTYPE
  5
3D
330
5
100
AcDbSymbolTableRecord
100
AcDbLinetypeTableRecord
  2
DASHDOTX2
 70
    0
  3
Dash dot (2x) ____  .  ____  .  ____  .  ___
 72
   65
 73
    4
 40
50.8
 49
25.4
 74
    0
 49
-12.7
 74
    0
 49
0
 74
    0
 49
-12.7
 74
    0
  0
LTYPE
  5
3E
330
5
100
AcDbSymbolTableRecord
100
AcDbLinetypeTableRecord
  2
DIVIDE
 70
    0
  3
Divide ____ . . ____ . . ____ . . ____ . . ____
 72
   65
 73
    6
 40
31.75
 49
12.7
 74
    0
 49
-6.35
 74
    0
 49
0
 74
    0
 49
-6.35
 74
    0
 49
0
 74
    0
 49
-6.35
 74
    0
  0
LTYPE
  5
3F
330
5
100
AcDbSymbolTableRecord
100
AcDbLinetypeTableRecord
  2
DIVIDETINY
 70
    0
  3
Divide (.15x) __..__..__..__..__..__..__..__.._
 72
   65
 73
    6
 40
4.7625
 49
1.905
 74
    0
 49
-0.9525
 74
    0
 49
0
 74
    0
 49
-0.9525
 74
    0
 49
0
 74
    0
 49
-0.9525
 74
    0
  0
LTYPE
  5
40
330
5
100
AcDbSymbolTableRecord
100
AcDbLinetypeTableRecord
  2
DIVIDE2
 70
    0
  3
Divide (.5x) __..__..__..__..__..__..__..__.._
 72
   65
 73
    6
 40
15.875
 49
6.35
 74
    0
 49
-3.175
 74
    0
 49
0
 74
    0
 49
-3.175
 74
    0
 49
0
 74
    0
 49
-3.175
 74
    0
  0
LTYPE
  5
41
330
5
100
AcDbSymbolTableRecord
100
AcDbLinetypeTableRecord
  2
DIVIDEX2
 70
    0
  3
Divide (2x) ________  .  .  ________  .  .  _
 72
   65
 73
    6
 40
63.5
 49
25.4
 74
    0
 49
-12.7
 74
    0
 49
0
 74
    0
 49
-12.7
 74
    0
 49
0
 74
    0
 49
-12.7
 74
    0
  0
LTYPE
  5
42
330
5
100
AcDbSymbolTableRecord
100
AcDbLinetypeTableRecord
  2
BORDER
 70
    0
  3
Border __ __ . __ __ . __ __ . __ __ . __ __ .
 72
   65
 73
    6
 40
44.45
 49
12.7
 74
    0
 49
-6.35
 74
    0
 49
12.7
 74
    0
 49
-6.35
 74
    0
 49
0
 74
    0
 49
-6.35
 74
    0
  0
LTYPE
  5
43
330
5
100
AcDbSymbolTableRecord
100
AcDbLinetypeTableRecord
  2
BORDERTINY
 70
    0
  3
Border (.15x) __.__.__.__.__.__.__.__.__.__.__.
 72
   65
 73
    6
 40
6.6675
 49
1.905
 74
    0
 49
-0.9525
 74
    0
 49
1.905
 74
    0
 49
-0.9525
 74
    0
 49
0
 74
    0
 49
-0.9525
 74
    0
  0
LTYPE
  5
44
330
5
100
AcDbSymbolTableRecord
100
AcDbLinetypeTableRecord
  2
BORDER2
 70
    0
  3
Border (.5x) __.__.__.__.__.__.__.__.__.__.__.
 72
   65
 73
    6
 40
22.225
 49
6.35
 74
    0
 49
-3.175
 74
    0
 49
6.35
 74
    0
 49
-3.175
 74
    0
 49
0
 74
    0
 49
-3.175
 74
    0
  0
LTYPE
  5
45
330
5
100
AcDbSymbolTableRecord
100
AcDbLinetypeTableRecord
  2
BORDERX2
 70
    0
  3
Border (2x) ____  ____  .  ____  ____  .  ___
 72
   65
 73
    6
 40
88.89999999999999
 49
25.4
 74
    0
 49
-12.7
 74
    0
 49
25.4
 74
    0
 49
-12.7
 74
    0
 49
0
 74
    0
 49
-12.7
 74
    0
  0
LTYPE
  5
46
330
5
100
AcDbSymbolTableRecord
100
AcDbLinetypeTableRecord
  2
CENTER
 70
    0
  3
Center ____ _ ____ _ ____ _ ____ _ ____ _ ____
 72
   65
 73
    4
 40
50.8
 49
31.75
 74
    0
 49
-6.35
 74
    0
 49
6.35
 74
    0
 49
-6.35
 74
    0
  0
LTYPE
  5
47
330
5
100
AcDbSymbolTableRecord
100
AcDbLinetypeTableRecord
  2
CENTERTINY
 70
    0
  3
Center (.15x) ___ _ ___ _ ___ _ ___ _ ___ _ ___
 72
   65
 73
    4
 40
7.619999999999999
 49
4.7625
 74
    0
 49
-0.9525
 74
    0
 49
0.9525
 74
    0
 49
-0.9525
 74
    0
  0
LTYPE
  5
48
330
5
100
AcDbSymbolTableRecord
100
AcDbLinetypeTableRecord
  2
CENTER2
 70
    0
  3
Center (.5x) ___ _ ___ _ ___ _ ___ _ ___ _ ___
 72
   65
 73
    4
 40
28.575
 49
19.05
 74
    0
 49
-3.175
 74
    0
 49
3.175
 74
    0
 49
-3.175
 74
    0
  0
LTYPE
  5
49
330
5
100
AcDbSymbolTableRecord
100
AcDbLinetypeTableRecord
  2
CENTERX2
 70
    0
  3
Center (2x) ________  __  ________  __  _____
 72
   65
 73
    4
 40
101.6
 49
63.5
 74
    0
 49
-12.7
 74
    0
 49
12.7
 74
    0
 49
-12.7
 74
    0
  0
ENDTAB
  0
TABLE
  2
LAYER
  5
2
330
0
100
AcDbSymbolTable
 70
    1
  0
LAYER
  5
10
330
2
100
AcDbSymbolTableRecord
100
AcDbLayerTableRecord
  2
0
 70
    0
 62
    7
  6
CONTINUOUS
370
    0
390
F
  0
LAYER
  5
4A
330
2
100
AcDbSymbolTableRecord
100
AcDbLayerTableRecord
  2
camera
 70
    0
 62
   22
420
12994048
  6
CONTINUOUS
370
    0
390
F
  0
LAYER
  5
4B
330
2
100
AcDbSymbolTableRecord
100
AcDbLayerTableRecord
  2
chassis
 70
    0
 62
    6
  6
CONTINUOUS
370
    0
390
F
  0
LAYER
  5
4C
330
2
100
AcDbSymbolTableRecord
100
AcDbLayerTableRecord
  2
chassis2
 70
    1
 62
    6
  6
CONTINUOUS
370
    0
390
F
  0
LAYER
  5
4D
330
2
100
AcDbSymbolTableRecord
100
AcDbLayerTableRecord
  2
openscad-base-hole
 70
    1
 62
    7
  6
CONTINUOUS
370
    0
390
F
  0
LAYER
  5
4E
330
2
100
AcDbSymbolTableRecord
100
AcDbLayerTableRecord
  2
openscad-box-board
 70
    1
 62
    7
  6
CONTINUOUS
370
    0
390
F
  0
LAYER
  5
4F
330
2
100
AcDbSymbolTableRecord
100
AcDbLayerTableRecord
  2
openscad-box-screws
 70
    1
 62
    7
  6
CONTINUOUS
370
    0
390
F
  0
LAYER
  5
50
330
2
100
AcDbSymbolTableRecord
100
AcDbLayerTableRecord
  2
openscad-box-screwsbase
 70
    1
 62
    7
  6
CONTINUOUS
370
    0
390
F
  0
LAYER
  5
51
330
2
100
AcDbSymbolTableRecord
100
AcDbLayerTableRecord
  2
openscad-box-support
 70
    1
 62
    7
  6
CONTINUOUS
370
    0
390
F
  0
LAYER
  5
52
330
2
100
AcDbSymbolTableRecord
100
AcDbLayerTableRecord
  2
openscad-camera-joint
 70
    1
 62
    7
  6
CONTINUOUS
370
    0
390
F
  0
LAYER
  5
53
330
2
100
AcDbSymbolTableRecord
100
AcDbLayerTableRecord
  2
openscad-camera-support
 70
    1
 62
    7
  6
CONTINUOUS
370
    0
390
F
  0
LAYER
  5
54
330
2
100
AcDbSymbolTableRecord
100
AcDbLayerTableRecord
  2
openscad-cover-screws
 70
    0
 62
    7
  6
CONTINUOUS
370
    0
390
F
  0
LAYER
  5
55
330
2
100
AcDbSymbolTableRecord
100
AcDbLayerTableRecord
  2
openscad-screws
 70
    1
 62
    7
  6
CONTINUOUS
370
    0
390
F
  0
LAYER
  5
56
330
2
100
AcDbSymbolTableRecord
100
AcDbLayerTableRecord
  2
openscad-screws-2
 70
    1
 62
    7
  6
CONTINUOUS
370
    0
390
F
  0
LAYER
  5
57
330
2
100
AcDbSymbolTableRecord
100
AcDbLayerTableRecord
  2
openscad-servo-hole
 70
    1
 62
    7
  6
CONTINUOUS
370
    0
390
F
  0
LAYER
  5
58
330
2
100
AcDbSymbolTableRecord
100
AcDbLayerTableRecord
  2
openscad-servo-hole2
 70
    1
 62
    7
  6
CONTINUOUS
370
    0
390
F
  0
LAYER
  5
59
330
2
100
AcDbSymbolTableRecord
100
AcDbLayerTableRecord
  2
openscad-servo-hole3
 70
    1
 62
    7
  6
CONTINUOUS
370
    0
390
F
  0
LAYER
  5
5A
330
2
100
AcDbSymbolTableRecord
100
AcDbLayerTableRecord
  2
openscad-servo-screws
 70
    1
 62
    7
  6
CONTINUOUS
370
    0
390
F
  0
LAYER
  5
5B
330
2
100
AcDbSymbolTableRecord
100
AcDbLayerTableRecord
  2
openscad-servo-support
 70
    1
 62
    7
  6
CONTINUOUS
370
    0
390
F
  0
LAYER
  5
5C
330
2
100
AcDbSymbolTableRecord
100
AcDbLayerTableRecord
  2
openscad-top1
 70
    1
 62
    7
  6
CONTINUOUS
370
    0
390
F
  0
LAYER
  5
5D
330
2
100
AcDbSymbolTableRecord
100
AcDbLayerTableRecord
  2
power
 70
    0
 62
   96
420
32768
  6
CONTINUOUS
370
    0
390
F
  0
LAYER
  5
5E
330
2
100
AcDbSymbolTableRecord
100
AcDbLayerTableRecord
  2
rpi
 70
    0
 62
    3
  6
CONTINUOUS
370
    0
390
F
  0
LAYER
  5
5F
330
2
100
AcDbSymbolTableRecord
100
AcDbLayerTableRecord
  2
servo1
 70
    0
 62
    4
  6
CONTINUOUS
370
    0
390
F
  0
LAYER
  5
60
330
2
100
AcDbSymbolTableRecord
100
AcDbLayerTableRecord
  2
servo2
 70
    0
 62
    4
  6
CONTINUOUS
370
    0
390
F
  0
ENDTAB
  0
TABLE
  2
STYLE
  5
3
330
0
100
AcDbSymbolTable
 70
    3
  0
STYLE
  5
61
330
2
100
AcDbSymbolTableRecord
100
AcDbTextStyleTableRecord
  2
Standard
 70
    0
 40
0
 41
1
 50
0
 71
    0
 42
1
  3
txt
  4

  0
ENDTAB
  0
TABLE
  2
VIEW
  5
6
330
0
100
AcDbSymbolTable
 70
    0
  0
ENDTAB
  0
TABLE
  2
UCS
  5
7
330
0
100
AcDbSymbolTable
 70
    0
  0
ENDTAB
  0
TABLE
  2
APPID
  5
9
330
0
100
AcDbSymbolTable
 70
    1
  0
APPID
  5
12
330
9
100
AcDbSymbolTableRecord
100
AcDbRegAppTableRecord
  2
ACAD
 70
    0
  0
APPID
  5
62
330
9
100
AcDbSymbolTableRecord
100
AcDbRegAppTableRecord
  2
LibreCad
 70
    0
  0
ENDTAB
  0
TABLE
  2
DIMSTYLE
  5
A
330
0
100
AcDbSymbolTable
 70
    1
100
AcDbDimStyleTable
 71
    1
  0
DIMSTYLE
105
63
330
A
100
AcDbSymbolTableRecord
100
AcDbDimStyleTableRecord
  2
Standard
 70
    0
 40
2.5
 41
2.5
 42
0.625
 43
0.38
 44
1.25
 45
0
 46
0
 47
0
 48
0
 49
1
140
2.5
141
0.09
142
0
143
25.4
144
1
145
0
146
1
147
0.625
148
0
 71
    0
 72
    0
 73
    0
 74
    1
 75
    0
 76
    0
 77
    0
 78
    8
 79
    0
170
    0
171
    2
172
    0
173
    0
174
    0
175
    0
176
    0
177
    0
178
    0
179
    0
271
    2
272
    4
273
    2
274
    2
275
    0
276
    0
277
    2
278
   44
279
    0
280
    0
281
    0
282
    0
283
    1
284
    0
285
    0
286
    0
288
    0
289
    3
340
STANDARD
341

371
   -2
372
   -2
  0
ENDTAB
  0
TABLE
  2
BLOCK_RECORD
  5
1
330
0
100
AcDbSymbolTable
 70
    2
  0
BLOCK_RECORD
  5
1F
330
1
100
AcDbSymbolTableRecord
100
AcDbBlockTableRecord
  2
*Model_Space
 70
    0
280
    1
281
    0
  0
BLOCK_RECORD
  5
1E
330
1
100
AcDbSymbolTableRecord
100
AcDbBlockTableRecord
  2
*Paper_Space
 70
    0
280
    1
281
    0
  0
ENDTAB
  0
ENDSEC
  0
SECTION
  2
BLOCKS
  0
BLOCK
  5
20
330
1F
100
AcDbEntity
  8
0
100
AcDbBlockBegin
  2
*Model_Space
 70
    0
 10
0
 20
0
 30
0
  3
*Model_Space
  1

  0
ENDBLK
  5
21
330
1F
100
AcDbEntity
  8
0
100
AcDbBlockEnd
  0
BLOCK
  5
1C
330
1B
100
AcDbEntity
  8
0
100
AcDbBlockBegin
  2
*Paper_Space
 70
    0
 10
0
 20
0
 30
0
  3
*Paper_Space
  1

  0
ENDBLK
  5
1D
330
1F
100
AcDbEntity
  8
0
100
AcDbBlockEnd
  0
ENDSEC
  0
SECTION
  2
ENTITIES
  0
ARC
  5
64
100
AcDbEntity
  8
camera
  6
ByLayer
 62
  256
370
   -1
100
AcDbCircle
 10
133.65
 20
244.0911088685401
 40
2
100
AcDbArc
 50
90
 51
180
  0
ARC
  5
65
100
AcDbEntity
  8
camera
  6
ByLayer
 62
  256
370
   -1
100
AcDbCircle
 10
133.65
 20
224.2291088685401
 40
2
100
AcDbArc
 50
180
 51
270
  0
ARC
  5
66
100
AcDbEntity
  8
camera
  6
ByLayer
 62
  256
370
   -1
100
AcDbCircle
 10
154.65
 20
224.2291088685401
 40
2
100
AcDbArc
 50
270
 51
0
  0
ARC
  5
67
100
AcDbEntity
  8
camera
  6
ByLayer
 62
  256
370
   -1
100
AcDbCircle
 10
154.65
 20
244.0911088685401
 40
2
100
AcDbArc
 50
0
 51
90
  0
LINE
  5
68
100
AcDbEntity
  8
camera
  6
ByLayer
 62
  256
370
   -1
100
AcDbLine
 10
131.65
 20
244.0911088685401
 11
131.65
 21
224.2291088685401
  0
LINE
  5
69
100
AcDbEntity
  8
camera
  6
ByLayer
 62
  256
370
   -1
100
AcDbLine
 10
133.65
 20
222.2291088685401
 11
154.65
 21
222.2291088685401
  0
LINE
  5
6A
100
AcDbEntity
  8
camera
  6
ByLayer
 62
  256
370
   -1
100
AcDbLine
 10
156.65
 20
224.2291088685401
 11
156.65
 21
244.0911088685401
  0
LINE
  5
6B
100
AcDbEntity
  8
camera
  6
ByLayer
 62
  256
370
   -1
100
AcDbLine
 10
154.65
 20
246.0911088685401
 11
133.65
 21
246.0911088685401
  0
CIRCLE
  5
6C
100
AcDbEntity
  8
camera
  6
ByLayer
 62
  256
370
   -1
100
AcDbCircle
 10
133.65
 20
244.0911088685401
 40
1.1
  0
CIRCLE
  5
6D
100
AcDbEntity
  8
camera
  6
ByLayer
 62
  256
370
   -1
100
AcDbCircle
 10
133.65
 20
231.6911088685401
 40
1.1
  0
CIRCLE
  5
6E
100
AcDbEntity
  8
camera
  6
ByLayer
 62
  256
370
   -1
100
AcDbCircle
 10
154.65
 20
231.6911088685401
 40
1.1
  0
CIRCLE
  5
6F
100
AcDbEntity
  8
camera
  6
ByLayer
 62
  256
370
   -1
100
AcDbCircle
 10
154.65
 20
244.0911088685401
 40
1.1
  0
LWPOLYLINE
  5
70
100
AcDbEntity
  8
camera
  6
ByLayer
 62
  256
370
   -1
100
AcDbPolyline
 90
    4
 70
    1
 43
0
 10
139.9
 20
236.2291088685401
 10
148.4
 20
236.2291088685401
 10
148.4
 20
227.7291088685401
 10
139.9
 20
227.7291088685401
  0
ARC
  5
71
100
AcDbEntity
  8
chassis
  6
ByLayer
 62
  256
370
   -1
100
AcDbCircle
 10
154.65
 20
231.6911088685401
 40
4
100
AcDbArc
 50
180
 51
0
  0
ARC
  5
72
100
AcDbEntity
  8
chassis
  6
ByLayer
 62
  256
370
   -1
100
AcDbCircle
 10
133.65
 20
231.6911088685401
 40
4
100
AcDbArc
 50
180
 51
0
  0
CIRCLE
  5
73
100
AcDbEntity
  8
chassis
  6
ByLayer
 62
  256
370
   -1
100
AcDbCircle
 10
133.65
 20
244.0911088685401
 40
1
  0
CIRCLE
  5
74
100
AcDbEntity
  8
chassis
  6
ByLayer
 62
  256
370
   -1
100
AcDbCircle
 10
154.65
 20
244.0911088685401
 40
1
  0
CIRCLE
  5
75
100
AcDbEntity
  8
chassis
  6
ByLayer
 62
  256
370
   -1
100
AcDbCircle
 10
133.65
 20
231.6911088685401
 40
1
  0
CIRCLE
  5
76
100
AcDbEntity
  8
chassis
  6
ByLayer
 62
  256
370
   -1
100
AcDbCircle
 10
154.65
 20
231.6911088685401
 40
1
  0
LINE
  5
77
100
AcDbEntity
  8
0
  6
ByLayer
 62
  256
370
   -1
100
AcDbLine
 10
148.4
 20
226.7291088685401
 11
139.9
 21
226.7291088685401
  0
LINE
  5
78
100
AcDbEntity
  8
0
  6
ByLayer
 62
  256
370
   -1
100
AcDbLine
 10
139.9
 20
237.2291088685401
 11
148.4
 21
237.2291088685401
  0
LINE
  5
79
100
AcDbEntity
  8
0
  6
ByLayer
 62
  256
370
   -1
100
AcDbLine
 10
138.9
 20
227.7291088685401
 11
138.9
 21
237.2291088685401
  0
LINE
  5
7A
100
AcDbEntity
  8
0
  6
ByLayer
 62
  256
370
   -1
100
AcDbLine
 10
149.4
 20
236.2291088685401
 11
149.4
 21
226.7291088685401
  0
LWPOLYLINE
  5
7B
100
AcDbEntity
  8
chassis
  6
ByLayer
 62
  256
370
   -1
100
AcDbPolyline
 90
    4
 70
    1
 43
0
 10
138.9
 20
237.2291088685401
 10
149.4
 20
237.2291088685401
 10
149.4
 20
226.7291088685401
 10
138.9
 20
226.7291088685401
  0
LINE
  5
7C
100
AcDbEntity
  8
chassis
  6
ByLayer
 62
  256
370
   -1
100
AcDbLine
 10
172.15
 20
231.9791088685401
 11
172.15
 21
191.7953426844665
  0
LINE
  5
7D
100
AcDbEntity
  8
chassis
  6
ByLayer
 62
  256
370
   -1
100
AcDbLine
 10
172.15
 20
228.4791088685401
 11
174.15
 21
228.4791088685401
  0
LINE
  5
7E
100
AcDbEntity
  8
chassis
  6
ByLayer
 62
  256
370
   -1
100
AcDbLine
 10
174.15
 20
228.4791088685401
 11
174.15
 21
214.8791088685401
  0
LINE
  5
7F
100
AcDbEntity
  8
chassis
  6
ByLayer
 62
  256
370
   -1
100
AcDbLine
 10
174.15
 20
214.8791088685401
 11
176.65
 21
214.8791088685401
  0
LINE
  5
80
100
AcDbEntity
  8
chassis
  6
ByLayer
 62
  256
370
   -1
100
AcDbLine
 10
172.15
 20
231.9791088685401
 11
172.15
 21
238.4791088685401
  0
LINE
  5
81
100
AcDbEntity
  8
0
  6
ByLayer
 62
  256
370
   -1
100
AcDbLine
 10
79.66241912152388
 20
231.9791088685401
 11
79.66241912152388
 21
99.99999999999999
  0
CIRCLE
  5
82
100
AcDbEntity
  8
servo1
  6
ByLayer
 62
  256
370
   -1
100
AcDbCircle
 10
30.66241912152386
 20
231.9791088685401
 40
2.3
  0
ARC
  5
83
100
AcDbEntity
  8
servo1
  6
ByLayer
 62
  256
370
   -1
100
AcDbCircle
 10
30.66241912152386
 20
225.67910886854
 40
2.5
100
AcDbArc
 50
179.9999999999994
 51
0
  0
LINE
  5
84
100
AcDbEntity
  8
servo1
  6
ByLayer
 62
  256
370
   -1
100
AcDbLine
 10
28.16241912152386
 20
225.6791088685401
 11
28.16241912152388
 21
226.6349531821865
  0
LINE
  5
85
100
AcDbEntity
  8
servo1
  6
ByLayer
 62
  256
370
   -1
100
AcDbLine
 10
33.16241912152387
 20
225.67910886854
 11
33.16241912152387
 21
226.6349531821874
  0
ARC
  5
86
100
AcDbEntity
  8
servo1
  6
ByLayer
 62
  256
370
   -1
100
AcDbCircle
 10
30.66241912152386
 20
231.9791088685401
 40
5.899999999997886
100
AcDbArc
 50
295.0702279493519
 51
244.9297720506519
  0
LWPOLYLINE
  5
87
100
AcDbEntity
  8
servo1
  6
ByLayer
 62
  256
370
   -1
100
AcDbPolyline
 90
    4
 70
    1
 43
0
 10
24.76241912152505
 20
237.8791088685389
 10
36.56241912152335
 20
237.8791088685389
 10
36.56241912152335
 20
215.37910886854
 10
24.76241912152505
 20
215.37910886854
  0
ARC
  5
88
100
AcDbEntity
  8
servo1
  6
ByLayer
 62
  256
370
   -1
100
AcDbCircle
 10
30.66241912152334
 20
240.2791088685389
 40
0.9999999999912155
100
AcDbArc
 50
130.5416018739338
 51
49.45839812620767
  0
ARC
  5
89
100
AcDbEntity
  8
servo1
  6
ByLayer
 62
  256
370
   -1
100
AcDbCircle
 10
30.66241912152334
 20
212.9791088685401
 40
0.9999999999903562
100
AcDbArc
 50
310.5416018739765
 51
229.4583981263958
  0
LINE
  5
8A
100
AcDbEntity
  8
servo1
  6
ByLayer
 62
  256
370
   -1
100
AcDbLine
 10
30.01241912152332
 20
212.2191746608786
 11
30.01241912152334
 21
210.6791088685401
  0
LINE
  5
8B
100
AcDbEntity
  8
servo1
  6
ByLayer
 62
  256
370
   -1
100
AcDbLine
 10
31.31241912152334
 20
212.2191746608886
 11
31.31241912152334
 21
210.6791088685401
  0
LINE
  5
8C
100
AcDbEntity
  8
servo1
  6
ByLayer
 62
  256
370
   -1
100
AcDbLine
 10
30.01241912152331
 20
241.0390430761963
 11
30.01241912152334
 21
242.5791088685389
  0
LINE
  5
8D
100
AcDbEntity
  8
servo1
  6
ByLayer
 62
  256
370
   -1
100
AcDbLine
 10
31.31241912152336
 20
241.0390430762
 11
31.31241912152334
 21
242.5791088685389
  0
LINE
  5
8E
100
AcDbEntity
  8
servo1
  6
ByLayer
 62
  256
370
   -1
100
AcDbLine
 10
30.01241912152334
 20
242.5791088685389
 11
24.76241912152505
 21
242.5791088685389
  0
LINE
  5
8F
100
AcDbEntity
  8
servo1
  6
ByLayer
 62
  256
370
   -1
100
AcDbLine
 10
24.76241912152505
 20
242.5791088685389
 11
24.76241912152505
 21
237.8791088685389
  0
LINE
  5
90
100
AcDbEntity
  8
servo1
  6
ByLayer
 62
  256
370
   -1
100
AcDbLine
 10
31.31241912152334
 20
242.5791088685389
 11
36.56241912152335
 21
242.5791088685389
  0
LINE
  5
91
100
AcDbEntity
  8
servo1
  6
ByLayer
 62
  256
370
   -1
100
AcDbLine
 10
36.56241912152335
 20
242.5791088685389
 11
36.56241912152335
 21
237.8791088685389
  0
LINE
  5
92
100
AcDbEntity
  8
servo1
  6
ByLayer
 62
  256
370
   -1
100
AcDbLine
 10
30.01241912152334
 20
210.6791088685401
 11
24.76241912152505
 21
210.6791088685401
  0
LINE
  5
93
100
AcDbEntity
  8
servo1
  6
ByLayer
 62
  256
370
   -1
100
AcDbLine
 10
24.76241912152505
 20
210.6791088685401
 11
24.76241912152505
 21
215.3791088685401
  0
LINE
  5
94
100
AcDbEntity
  8
servo1
  6
ByLayer
 62
  256
370
   -1
100
AcDbLine
 10
31.31241912152334
 20
210.6791088685401
 11
36.56241912152335
 21
210.6791088685401
  0
LINE
  5
95
100
AcDbEntity
  8
servo1
  6
ByLayer
 62
  256
370
   -1
100
AcDbLine
 10
36.56241912152335
 20
210.6791088685401
 11
36.56241912152335
 21
215.37910886854
  0
ARC
  5
96
100
AcDbEntity
  8
chassis
  6
ByLayer
 62
  256
370
   -1
100
AcDbCircle
 10
30.66241912152386
 20
225.67910886854
 40
3
100
AcDbArc
 50
179.9999999999994
 51
0
  0
LINE
  5
97
100
AcDbEntity
  8
chassis
  6
ByLayer
 62
  256
370
   -1
100
AcDbLine
 10
27.66241912152386
 20
225.6791088685401
 11
27.66241912152388
 21
226.325791258503
  0
LINE
  5
98
100
AcDbEntity
  8
chassis
  6
ByLayer
 62
  256
370
   -1
100
AcDbLine
 10
33.66241912152387
 20
225.67910886854
 11
33.66241912152387
 21
226.3257912585019
  0
ARC
  5
99
100
AcDbEntity
  8
chassis
  6
ByLayer
 62
  256
370
   -1
100
AcDbCircle
 10
30.66241912152386
 20
231.9791088685401
 40
6.399999999997886
100
AcDbArc
 50
297.9531868834014
 51
242.0468131166021
  0
LINE
  5
9A
100
AcDbEntity
  8
servo1
  6
ByLayer
 62
  256
370
   -1
100
AcDbLine
 10
32.65882589286736
 20
217.259275637198
 11
33.41241912152388
 21
229.8140453590819
  0
LINE
  5
9B
100
AcDbEntity
  8
servo1
  6
ByLayer
 62
  256
370
   -1
100
AcDbLine
 10
28.66601235018038
 20
217.259275637198
 11
27.91241912152387
 21
229.8140453590794
  0
ARC
  5
9C
100
AcDbEntity
  8
servo1
  6
ByLayer
 62
  256
370
   -1
100
AcDbCircle
 10
30.66241912152386
 20
217.37910886854
 40
1.999999999999994
100
AcDbArc
 50
183.4350265864829
 51
356.5649734135179
  0
ARC
  5
9D
100
AcDbEntity
  8
servo1
  6
ByLayer
 62
  256
370
   -1
100
AcDbCircle
 10
30.66241912152386
 20
231.9791088685401
 40
3.499999999998224
100
AcDbArc
 50
321.7867892982991
 51
218.2132107017329
  0
CIRCLE
  5
9E
100
AcDbEntity
  8
chassis
  6
ByLayer
 62
  256
370
   -1
100
AcDbCircle
 10
30.66241912152334
 20
240.2791088685389
 40
1
  0
CIRCLE
  5
9F
100
AcDbEntity
  8
chassis
  6
ByLayer
 62
  256
370
   -1
100
AcDbCircle
 10
30.66241912152334
 20
212.9791088685401
 40
1
  0
LINE
  5
A0
100
AcDbEntity
  8
0
  6
ByLayer
 62
  256
370
   -1
100
AcDbLine
 10
172.15
 20
191.7953426844665
 11
-16.22513692382145
 21
191.7953426844665
  0
LINE
  5
A1
100
AcDbEntity
  8
0
  6
ByLayer
 62
  256
370
   -1
100
AcDbLine
 10
138.9
 20
237.2291088685401
 11
149.4
 21
226.7291088685401
  0
LINE
  5
A2
100
AcDbEntity
  8
0
  6
ByLayer
 62
  256
370
   -1
100
AcDbLine
 10
138.9
 20
226.7291088685401
 11
149.4
 21
237.2291088685401
  0
LINE
  5
A3
100
AcDbEntity
  8
openscad-camera-support
  6
ByLayer
 62
  256
370
   -1
100
AcDbLine
 10
-6.500000000000028
 20
12.11199999999999
 11
-6.500000000000028
 21
-0.2879999999999825
  0
LINE
  5
A4
100
AcDbEntity
  8
openscad-camera-support
  6
ByLayer
 62
  256
370
   -1
100
AcDbLine
 10
-14.50000000000003
 20
12.11199999999999
 11
-14.50000000000003
 21
-0.2879999999999825
  0
LINE
  5
A5
100
AcDbEntity
  8
openscad-camera-support
  6
ByLayer
 62
  256
370
   -1
100
AcDbLine
 10
6.499999999999972
 20
12.11199999999999
 11
6.499999999999972
 21
-0.2879999999999825
  0
LINE
  5
A6
100
AcDbEntity
  8
openscad-camera-support
  6
ByLayer
 62
  256
370
   -1
100
AcDbLine
 10
14.49999999999997
 20
12.11199999999999
 11
14.49999999999997
 21
-0.2879999999999825
  0
ARC
  5
A7
100
AcDbEntity
  8
openscad-camera-support
  6
ByLayer
 62
  256
370
   -1
100
AcDbCircle
 10
10.49999999999997
 20
12.11199999999999
 40
4
100
AcDbArc
 50
0
 51
180
  0
ARC
  5
A8
100
AcDbEntity
  8
openscad-camera-support
  6
ByLayer
 62
  256
370
   -1
100
AcDbCircle
 10
10.49999999999997
 20
-0.2879999999999825
 40
4
100
AcDbArc
 50
180
 51
0
  0
ARC
  5
A9
100
AcDbEntity
  8
openscad-camera-support
  6
ByLayer
 62
  256
370
   -1
100
AcDbCircle
 10
-10.50000000000003
 20
12.11199999999999
 40
4
100
AcDbArc
 50
0
 51
180
  0
ARC
  5
AA
100
AcDbEntity
  8
openscad-camera-support
  6
ByLayer
 62
  256
370
   -1
100
AcDbCircle
 10
-10.50000000000003
 20
-0.2879999999999825
 40
4
100
AcDbArc
 50
180
 51
0
  0
CIRCLE
  5
AB
100
AcDbEntity
  8
openscad-camera-support
  6
ByLayer
 62
  256
370
   -1
100
AcDbCircle
 10
-10.50000000000003
 20
12.11199999999999
 40
1
  0
CIRCLE
  5
AC
100
AcDbEntity
  8
openscad-camera-support
  6
ByLayer
 62
  256
370
   -1
100
AcDbCircle
 10
-10.50000000000003
 20
-0.2879999999999825
 40
1
  0
CIRCLE
  5
AD
100
AcDbEntity
  8
openscad-camera-support
  6
ByLayer
 62
  256
370
   -1
100
AcDbCircle
 10
10.49999999999997
 20
-0.2879999999999825
 40
1
  0
CIRCLE
  5
AE
100
AcDbEntity
  8
openscad-camera-support
  6
ByLayer
 62
  256
370
   -1
100
AcDbCircle
 10
10.50000000000003
 20
12.11199999999999
 40
1
  0
LINE
  5
AF
100
AcDbEntity
  8
openscad-camera-joint
  6
ByLayer
 62
  256
370
   -1
100
AcDbLine
 10
-25.00000000000003
 20
25
 11
-25.00000000000003
 21
-25
  0
LINE
  5
B0
100
AcDbEntity
  8
openscad-camera-joint
  6
ByLayer
 62
  256
370
   -1
100
AcDbLine
 10
-25.00000000000003
 20
-25
 11
-23.00000000000003
 21
-25
  0
LINE
  5
B1
100
AcDbEntity
  8
openscad-camera-joint
  6
ByLayer
 62
  256
370
   -1
100
AcDbLine
 10
-23.00000000000003
 20
-25
 11
-23.00000000000003
 21
23
  0
LINE
  5
B2
100
AcDbEntity
  8
openscad-camera-joint
  6
ByLayer
 62
  256
370
   -1
100
AcDbLine
 10
-23.00000000000003
 20
23
 11
24.99999999999997
 21
23
  0
LINE
  5
B3
100
AcDbEntity
  8
openscad-camera-joint
  6
ByLayer
 62
  256
370
   -1
100
AcDbLine
 10
24.99999999999997
 20
23
 11
24.99999999999997
 21
25
  0
LINE
  5
B4
100
AcDbEntity
  8
openscad-camera-joint
  6
ByLayer
 62
  256
370
   -1
100
AcDbLine
 10
24.99999999999997
 20
25
 11
-25.00000000000003
 21
25
  0
LINE
  5
B5
100
AcDbEntity
  8
openscad-screws
  6
ByLayer
 62
  256
370
   -1
100
AcDbLine
 10
19.00000000000389
 20
22
 11
18.99999999999997
 21
24.99999999999989
  0
LINE
  5
B6
100
AcDbEntity
  8
openscad-screws
  6
ByLayer
 62
  256
370
   -1
100
AcDbLine
 10
24.99999999999997
 20
19
 11
22.00000000000006
 21
19.0000000000108
  0
ARC
  5
B7
100
AcDbEntity
  8
openscad-screws
  6
ByLayer
 62
  256
370
   -1
100
AcDbCircle
 10
22.00000000000006
 20
22
 40
2.999999999996163
100
AcDbArc
 50
180
 51
270
  0
LINE
  5
B8
100
AcDbEntity
  8
openscad-screws
  6
ByLayer
 62
  256
370
   -1
100
AcDbLine
 10
-22.00000000000003
 20
-19.00000000000392
 11
-24.99999999999991
 21
-19
  0
LINE
  5
B9
100
AcDbEntity
  8
openscad-screws
  6
ByLayer
 62
  256
370
   -1
100
AcDbLine
 10
-19.00000000000003
 20
-25
 11
-19.0000000000108
 21
-22.00000000000011
  0
ARC
  5
BA
100
AcDbEntity
  8
openscad-screws
  6
ByLayer
 62
  256
370
   -1
100
AcDbCircle
 10
-22.00000000000006
 20
-22.00000000000006
 40
2.999999999996163
100
AcDbArc
 50
360
 51
90
  0
LINE
  5
BB
100
AcDbEntity
  8
openscad-screws
  6
ByLayer
 62
  256
370
   -1
100
AcDbLine
 10
-24.99999999999991
 20
-19
 11
-24.99999999999991
 21
-25
  0
LINE
  5
BC
100
AcDbEntity
  8
openscad-screws
  6
ByLayer
 62
  256
370
   -1
100
AcDbLine
 10
-24.99999999999991
 20
-25
 11
-19.00000000000003
 21
-25
  0
LINE
  5
BD
100
AcDbEntity
  8
openscad-screws
  6
ByLayer
 62
  256
370
   -1
100
AcDbLine
 10
18.99999999999997
 20
24.99999999999989
 11
24.99999999999997
 21
24.99999999999989
  0
LINE
  5
BE
100
AcDbEntity
  8
openscad-screws
  6
ByLayer
 62
  256
370
   -1
100
AcDbLine
 10
24.99999999999997
 20
24.99999999999989
 11
24.99999999999997
 21
19
  0
CIRCLE
  5
BF
100
AcDbEntity
  8
openscad-screws-2
  6
ByLayer
 62
  256
370
   -1
100
AcDbCircle
 10
22.00000000000006
 20
22
 40
1
  0
CIRCLE
  5
C0
100
AcDbEntity
  8
openscad-screws-2
  6
ByLayer
 62
  256
370
   -1
100
AcDbCircle
 10
-22.00000000000006
 20
-22.00000000000006
 40
1
  0
LWPOLYLINE
  5
C1
100
AcDbEntity
  8
openscad-servo-support
  6
ByLayer
 62
  256
370
   -1
100
AcDbPolyline
 90
    4
 70
    1
 43
0
 10
25
 20
6.400000000000006
 10
18.69999999999999
 20
6.400000000000006
 10
18.69999999999999
 20
11.30000000000001
 10
25
 20
11.30000000000001
  0
LWPOLYLINE
  5
C2
100
AcDbEntity
  8
openscad-servo-support
  6
ByLayer
 62
  256
370
   -1
100
AcDbPolyline
 90
    4
 70
    1
 43
0
 10
18.69999999999999
 20
-17.09999999999999
 10
25
 20
-17.09999999999999
 10
25
 20
-25
 10
18.69999999999999
 20
-25
  0
CIRCLE
  5
C3
100
AcDbEntity
  8
openscad-servo-screws
  6
ByLayer
 62
  256
370
   -1
100
AcDbCircle
 10
-5.222489107836736e-13
 20
8.299999999998818
 40
1
  0
CIRCLE
  5
C4
100
AcDbEntity
  8
openscad-servo-screws
  6
ByLayer
 62
  256
370
   -1
100
AcDbCircle
 10
-5.222489107836736e-13
 20
-19
 40
1
  0
ARC
  5
C5
100
AcDbEntity
  8
openscad-servo-hole
  6
ByLayer
 62
  256
370
   -1
100
AcDbCircle
 10
0
 20
-6.300000000000097
 40
3
100
AcDbArc
 50
179.9999999999994
 51
0
  0
LINE
  5
C6
100
AcDbEntity
  8
openscad-servo-hole
  6
ByLayer
 62
  256
370
   -1
100
AcDbLine
 10
-3
 20
-6.299999999999983
 11
-2.999999999999982
 21
-5.653317610037107
  0
LINE
  5
C7
100
AcDbEntity
  8
openscad-servo-hole
  6
ByLayer
 62
  256
370
   -1
100
AcDbLine
 10
3.000000000000007
 20
-6.300000000000097
 11
3.000000000000007
 21
-5.653317610038187
  0
ARC
  5
C8
100
AcDbEntity
  8
openscad-servo-hole
  6
ByLayer
 62
  256
370
   -1
100
AcDbCircle
 10
0
 20
0
 40
6.399999999997886
100
AcDbArc
 50
297.9531868834014
 51
242.0468131166021
  0
LINE
  5
C9
100
AcDbEntity
  8
chassis
  6
ByLayer
 62
  256
370
   -1
100
AcDbLine
 10
44.16241912152385
 20
191.7953426844665
 11
17.16241912152388
 21
191.7953426844665
  0
LINE
  5
CA
100
AcDbEntity
  8
chassis
  6
ByLayer
 62
  256
370
   -1
100
AcDbLine
 10
172.15
 20
235.9791088685401
 11
176.65
 21
235.9791088685401
  0
LINE
  5
CB
100
AcDbEntity
  8
chassis
  6
ByLayer
 62
  256
370
   -1
100
AcDbLine
 10
176.65
 20
235.9791088685401
 11
176.65
 21
214.8791088685401
  0
LINE
  5
CC
100
AcDbEntity
  8
chassis
  6
ByLayer
 62
  256
370
   -1
100
AcDbLine
 10
116.15
 20
231.9791088685401
 11
116.15
 21
191.7953426844665
  0
LINE
  5
CD
100
AcDbEntity
  8
chassis
  6
ByLayer
 62
  256
370
   -1
100
AcDbLine
 10
116.15
 20
231.9791088685401
 11
116.15
 21
238.4791088685401
  0
LINE
  5
CE
100
AcDbEntity
  8
chassis
  6
ByLayer
 62
  256
370
   -1
100
AcDbLine
 10
116.15
 20
235.9791088685401
 11
111.65
 21
235.9791088685401
  0
LINE
  5
CF
100
AcDbEntity
  8
chassis
  6
ByLayer
 62
  256
370
   -1
100
AcDbLine
 10
116.15
 20
228.4791088685401
 11
111.65
 21
228.4791088685401
  0
LINE
  5
D0
100
AcDbEntity
  8
chassis
  6
ByLayer
 62
  256
370
   -1
100
AcDbLine
 10
111.65
 20
235.9791088685401
 11
111.65
 21
228.4791088685401
  0
LINE
  5
D1
100
AcDbEntity
  8
chassis
  6
ByLayer
 62
  256
370
   -1
100
AcDbLine
 10
172.15
 20
238.4791088685401
 11
179.65
 21
238.4791088685401
  0
LINE
  5
D2
100
AcDbEntity
  8
chassis
  6
ByLayer
 62
  256
370
   -1
100
AcDbLine
 10
172.15
 20
231.9791088685401
 11
179.65
 21
231.9791088685401
  0
LINE
  5
D3
100
AcDbEntity
  8
chassis
  6
ByLayer
 62
  256
370
   -1
100
AcDbLine
 10
116.15
 20
238.4791088685401
 11
108.65
 21
238.4791088685401
  0
LINE
  5
D4
100
AcDbEntity
  8
chassis
  6
ByLayer
 62
  256
370
   -1
100
AcDbLine
 10
116.15
 20
231.9791088685401
 11
108.65
 21
231.9791088685401
  0
LINE
  5
D5
100
AcDbEntity
  8
0
  6
ByLayer
 62
  256
370
   -2
100
AcDbLine
 10
108.65
 20
191.7953426844665
 11
108.65
 21
115.0509709144291
  0
LINE
  5
D6
100
AcDbEntity
  8
chassis
  6
ByLayer
 62
  256
370
   -2
100
AcDbLine
 10
116.15
 20
191.7953426844665
 11
172.15
 21
191.7953426844665
  0
LWPOLYLINE
  5
D7
100
AcDbEntity
  8
servo2
  6
ByLayer
 62
  256
370
   -2
100
AcDbPolyline
 90
    4
 70
    1
 43
0
 10
138.2500000000012
 20
157.0953426844665
 10
150.0499999999995
 20
157.0953426844665
 10
150.0499999999995
 20
172.9953426844666
 10
138.2500000000012
 20
172.9953426844666
  0
LWPOLYLINE
  5
D8
100
AcDbEntity
  8
servo2
  6
ByLayer
 62
  256
370
   -2
100
AcDbPolyline
 90
    4
 70
    1
 43
0
 10
138.2500000000012
 20
172.9953426844666
 10
150.0499999999995
 20
172.9953426844666
 10
150.0499999999995
 20
175.4953426844666
 10
138.2500000000012
 20
175.4953426844666
  0
LWPOLYLINE
  5
D9
100
AcDbEntity
  8
servo2
  6
ByLayer
 62
  256
370
   -2
100
AcDbPolyline
 90
    4
 70
    1
 43
0
 10
138.2500000000012
 20
175.4953426844666
 10
150.0499999999995
 20
175.4953426844666
 10
150.0499999999995
 20
179.7953426844665
 10
138.2500000000012
 20
179.7953426844665
  0
LWPOLYLINE
  5
DA
100
AcDbEntity
  8
servo2
  6
ByLayer
 62
  256
370
   -2
100
AcDbPolyline
 90
    4
 70
    1
 43
0
 10
138.2500000000012
 20
179.7953426844665
 10
150.0499999999995
 20
179.7953426844665
 10
150.0499999999995
 20
183.7953426844665
 10
138.2500000000012
 20
183.7953426844665
  0
LWPOLYLINE
  5
DB
100
AcDbEntity
  8
servo2
  6
ByLayer
 62
  256
370
   -2
100
AcDbPolyline
 90
    4
 70
    1
 43
0
 10
141.8499999999994
 20
183.7953426844665
 10
146.4500000000021
 20
183.7953426844665
 10
146.4500000000021
 20
186.9953426844666
 10
141.8499999999994
 20
186.9953426844666
  0
LINE
  5
DC
100
AcDbEntity
  8
servo2
  6
ByLayer
 62
  256
370
   -2
100
AcDbLine
 10
127.5499999999991
 20
188.7953426844665
 11
127.5499999999991
 21
186.9953426844666
  0
LINE
  5
DD
100
AcDbEntity
  8
servo2
  6
ByLayer
 62
  256
370
   -2
100
AcDbLine
 10
127.5499999999991
 20
186.9953426844666
 11
140.6499999999998
 21
186.9953426844666
  0
LINE
  5
DE
100
AcDbEntity
  8
servo2
  6
ByLayer
 62
  256
370
   -2
100
AcDbLine
 10
140.6499999999998
 20
186.9953426844666
 11
140.6499999999998
 21
184.7953426844665
  0
LINE
  5
DF
100
AcDbEntity
  8
servo2
  6
ByLayer
 62
  256
370
   -2
100
AcDbLine
 10
140.6499999999998
 20
184.7953426844665
 11
147.6500000000002
 21
184.7953426844665
  0
LINE
  5
E0
100
AcDbEntity
  8
servo2
  6
ByLayer
 62
  256
370
   -2
100
AcDbLine
 10
147.6500000000002
 20
184.7953426844665
 11
147.6500000000002
 21
186.9953426844666
  0
LINE
  5
E1
100
AcDbEntity
  8
servo2
  6
ByLayer
 62
  256
370
   -2
100
AcDbLine
 10
147.6500000000002
 20
186.9953426844666
 11
160.7500000000016
 21
186.9953426844666
  0
LINE
  5
E2
100
AcDbEntity
  8
servo2
  6
ByLayer
 62
  256
370
   -2
100
AcDbLine
 10
160.7500000000016
 20
186.9953426844666
 11
160.7500000000016
 21
188.7953426844665
  0
LINE
  5
E3
100
AcDbEntity
  8
servo2
  6
ByLayer
 62
  256
370
   -2
100
AcDbLine
 10
160.7500000000016
 20
188.7953426844665
 11
127.5499999999991
 21
188.7953426844665
  0
LINE
  5
E4
100
AcDbEntity
  8
chassis
  6
ByLayer
 62
  256
370
   -2
100
AcDbLine
 10
140.1499999999998
 20
184.7953426844665
 11
108.65
 21
184.7953426844665
  0
LINE
  5
E5
100
AcDbEntity
  8
chassis
  6
ByLayer
 62
  256
370
   -2
100
AcDbLine
 10
148.1500000000002
 20
184.7953426844665
 11
179.65
 21
184.7953426844665
  0
LINE
  5
E6
100
AcDbEntity
  8
chassis
  6
ByLayer
 62
  256
370
   -2
100
AcDbLine
 10
108.65
 20
238.4791088685401
 11
108.65
 21
184.7953426844665
  0
LINE
  5
E7
100
AcDbEntity
  8
chassis
  6
ByLayer
 62
  256
370
   -2
100
AcDbLine
 10
179.65
 20
238.4791088685401
 11
179.65
 21
184.7953426844665
  0
LINE
  5
E8
100
AcDbEntity
  8
chassis
  6
ByLayer
 62
  256
370
   -2
100
AcDbLine
 10
148.1500000000002
 20
184.7953426844665
 11
148.1500000000002
 21
186.4953426844665
  0
LINE
  5
E9
100
AcDbEntity
  8
chassis
  6
ByLayer
 62
  256
370
   -2
100
AcDbLine
 10
148.1500000000002
 20
186.4953426844665
 11
161.2500000000016
 21
186.4953426844666
  0
LINE
  5
EA
100
AcDbEntity
  8
chassis
  6
ByLayer
 62
  256
370
   -2
100
AcDbLine
 10
161.2500000000016
 20
186.4953426844665
 11
161.2500000000016
 21
188.7953426844665
  0
LINE
  5
EB
100
AcDbEntity
  8
chassis
  6
ByLayer
 62
  256
370
   -2
100
AcDbLine
 10
127.0499999999991
 20
188.7953426844665
 11
127.0499999999991
 21
186.4953426844665
  0
LINE
  5
EC
100
AcDbEntity
  8
chassis
  6
ByLayer
 62
  256
370
   -2
100
AcDbLine
 10
140.1499999999998
 20
186.4953426844666
 11
140.1499999999998
 21
184.7953426844665
  0
LINE
  5
ED
100
AcDbEntity
  8
chassis
  6
ByLayer
 62
  256
370
   -2
100
AcDbLine
 10
127.0499999999991
 20
186.4953426844666
 11
140.1499999999998
 21
186.4953426844666
  0
LINE
  5
EE
100
AcDbEntity
  8
chassis
  6
ByLayer
 62
  256
370
   -2
100
AcDbLine
 10
126.0499999999991
 20
188.7953426844665
 11
124.5499999999991
 21
191.7953426844665
  0
LINE
  5
EF
100
AcDbEntity
  8
chassis
  6
ByLayer
 62
  256
370
   -2
100
AcDbLine
 10
162.2500000000016
 20
188.7953426844665
 11
163.7500000000016
 21
191.7953426844665
  0
LINE
  5
F0
100
AcDbEntity
  8
chassis
  6
ByLayer
 62
  256
370
   -2
100
AcDbLine
 10
126.0499999999991
 20
188.7953426844665
 11
162.2500000000016
 21
188.7953426844665
  0
LINE
  5
F1
100
AcDbEntity
  8
chassis
  6
ByLayer
 62
  256
370
   -2
100
AcDbLine
 10
140.1499999999998
 20
184.7953426844665
 11
148.1500000000002
 21
184.7953426844665
  0
LINE
  5
F2
100
AcDbEntity
  8
chassis
  6
ByLayer
 62
  256
370
   -1
100
AcDbLine
 10
135.5
 20
172.9953426844666
 11
152.8
 21
172.9953426844666
  0
LINE
  5
F3
100
AcDbEntity
  8
chassis
  6
ByLayer
 62
  256
370
   -1
100
AcDbLine
 10
188.8000000000001
 20
183.7953426844665
 11
99.5
 21
183.7953426844665
  0
LINE
  5
F4
100
AcDbEntity
  8
chassis
  6
ByLayer
 62
  256
370
   -2
100
AcDbLine
 10
99.5
 20
156.5953426844665
 11
188.8000000000001
 21
156.5953426844665
  0
LINE
  5
F5
100
AcDbEntity
  8
chassis
  6
ByLayer
 62
  256
370
   -2
100
AcDbLine
 10
99.5
 20
154.5953426844665
 11
188.8000000000001
 21
154.5953426844665
  0
LINE
  5
F6
100
AcDbEntity
  8
chassis
  6
ByLayer
 62
  256
370
   -1
100
AcDbLine
 10
135.5
 20
156.5953426844665
 11
135.5
 21
172.9953426844666
  0
LINE
  5
F7
100
AcDbEntity
  8
chassis
  6
ByLayer
 62
  256
370
   -1
100
AcDbLine
 10
152.8
 20
156.5953426844665
 11
152.8
 21
172.9953426844666
  0
LINE
  5
F8
100
AcDbEntity
  8
chassis
  6
ByLayer
 62
  256
370
   -1
100
AcDbLine
 10
99.5
 20
154.5953426844665
 11
99.5
 21
183.7953426844665
  0
LINE
  5
F9
100
AcDbEntity
  8
chassis
  6
ByLayer
 62
  256
370
   -1
100
AcDbLine
 10
188.8000000000001
 20
154.5953426844665
 11
188.8000000000001
 21
183.7953426844665
  0
LWPOLYLINE
  5
FA
100
AcDbEntity
  8
servo1
  6
ByLayer
 62
  256
370
   -1
100
AcDbPolyline
 90
    4
 70
    1
 43
0
 10
24.76241912152389
 20
179.7953426844665
 10
24.76241912152389
 20
183.7953426844665
 10
39.46241912152388
 20
183.7953426844665
 10
39.46241912152388
 20
179.7953426844665
  0
LINE
  5
FB
100
AcDbEntity
  8
servo1
  6
ByLayer
 62
  256
370
   -1
100
AcDbLine
 10
39.46241912152388
 20
157.0953426844665
 11
24.76241912152389
 21
157.0953426844665
  0
LWPOLYLINE
  5
FC
100
AcDbEntity
  8
servo1
  6
ByLayer
 62
  256
370
   -1
100
AcDbPolyline
 90
    4
 70
    1
 43
0
 10
24.76241912152389
 20
157.0953426844665
 10
24.76241912152389
 20
179.7953426844665
 10
47.26241912152389
 20
179.7953426844665
 10
47.26241912152389
 20
157.0953426844665
  0
LWPOLYLINE
  5
FD
100
AcDbEntity
  8
servo1
  6
ByLayer
 62
  256
370
   -1
100
AcDbPolyline
 90
    4
 70
    1
 43
0
 10
20.0624191215239
 20
172.9953426844666
 10
20.0624191215239
 20
175.4953426844666
 10
24.76241912152389
 20
175.4953426844666
 10
24.76241912152389
 20
172.9953426844666
  0
LWPOLYLINE
  5
FE
100
AcDbEntity
  8
servo1
  6
ByLayer
 62
  256
370
   -1
100
AcDbPolyline
 90
    4
 70
    1
 43
0
 10
47.26241912152389
 20
172.9953426844666
 10
47.26241912152389
 20
175.4953426844666
 10
51.96241912152388
 20
175.4953426844666
 10
51.96241912152388
 20
172.9953426844666
  0
LINE
  5
FF
100
AcDbEntity
  8
servo1
  6
ByLayer
 62
  256
370
   -1
100
AcDbLine
 10
21.36241912152389
 20
172.9953426844666
 11
21.36241912152389
 21
175.4953426844666
  0
LINE
  5
100
100
AcDbEntity
  8
servo1
  6
ByLayer
 62
  256
370
   -1
100
AcDbLine
 10
23.36241912152389
 20
172.9953426844666
 11
23.36241912152389
 21
175.4953426844666
  0
LINE
  5
101
100
AcDbEntity
  8
servo1
  6
ByLayer
 62
  256
370
   -1
100
AcDbLine
 10
48.6624191215239
 20
175.4953426844666
 11
48.6624191215239
 21
172.9953426844666
  0
LINE
  5
102
100
AcDbEntity
  8
servo1
  6
ByLayer
 62
  256
370
   -1
100
AcDbLine
 10
50.6624191215239
 20
175.4953426844666
 11
50.6624191215239
 21
172.9953426844666
  0
LWPOLYLINE
  5
103
100
AcDbEntity
  8
servo1
  6
ByLayer
 62
  256
370
   -1
100
AcDbPolyline
 90
    4
 70
    1
 43
0
 10
28.36241912152389
 20
183.7953426844665
 10
28.36241912152389
 20
186.9953426844666
 10
32.96241912152388
 20
186.9953426844666
 10
32.96241912152388
 20
183.7953426844665
  0
LINE
  5
104
100
AcDbEntity
  8
servo1
  6
ByLayer
 62
  256
370
   -1
100
AcDbLine
 10
27.1624191215239
 20
184.7953426844665
 11
27.1624191215239
 21
188.7953426844665
  0
LINE
  5
105
100
AcDbEntity
  8
servo1
  6
ByLayer
 62
  256
370
   -1
100
AcDbLine
 10
27.1624191215239
 20
184.7953426844665
 11
34.1624191215239
 21
184.7953426844665
  0
LINE
  5
106
100
AcDbEntity
  8
chassis
  6
ByLayer
 62
  256
370
   -2
100
AcDbLine
 10
3.662419121523882
 20
156.5953426844665
 11
79.66241912152388
 21
156.5953426844665
  0
LINE
  5
107
100
AcDbEntity
  8
servo1
  6
ByLayer
 62
  256
370
   -1
100
AcDbLine
 10
27.1624191215239
 20
188.7953426844665
 11
34.1624191215239
 21
188.7953426844665
  0
LINE
  5
108
100
AcDbEntity
  8
servo1
  6
ByLayer
 62
  256
370
   -1
100
AcDbLine
 10
34.1624191215239
 20
184.7953426844665
 11
34.1624191215239
 21
188.7953426844665
  0
LINE
  5
109
100
AcDbEntity
  8
chassis
  6
ByLayer
 62
  256
370
   -2
100
AcDbLine
 10
44.16241912152385
 20
184.7953426844665
 11
17.16241912152388
 21
184.7953426844665
  0
LINE
  5
10A
100
AcDbEntity
  8
chassis
  6
ByLayer
 62
  256
370
   -2
100
AcDbLine
 10
41.16241912152385
 20
188.7953426844665
 11
17.16241912152388
 21
188.7953426844665
  0
LINE
  5
10B
100
AcDbEntity
  8
chassis
  6
ByLayer
 62
  256
370
   -2
100
AcDbLine
 10
41.16241912152385
 20
191.7953426844665
 11
41.16241912152385
 21
188.7953426844665
  0
LINE
  5
10C
100
AcDbEntity
  8
chassis
  6
ByLayer
 62
  256
370
   -2
100
AcDbLine
 10
26.6624191215239
 20
184.7953426844665
 11
26.6624191215239
 21
188.7953426844665
  0
LINE
  5
10D
100
AcDbEntity
  8
chassis
  6
ByLayer
 62
  256
370
   -2
100
AcDbLine
 10
34.6624191215239
 20
184.7953426844665
 11
34.6624191215239
 21
188.7953426844665
  0
LINE
  5
10E
100
AcDbEntity
  8
openscad-top1
  6
ByLayer
 62
  256
370
   -1
100
AcDbLine
 10
-13.49999999999963
 20
-3
 11
-13.49999999999963
 21
6.499999999999972
  0
LINE
  5
10F
100
AcDbEntity
  8
openscad-top1
  6
ByLayer
 62
  256
370
   -1
100
AcDbLine
 10
-13.49999999999963
 20
6.499999999999972
 11
13.50000000000033
 21
6.499999999999972
  0
LINE
  5
110
100
AcDbEntity
  8
openscad-top1
  6
ByLayer
 62
  256
370
   -1
100
AcDbLine
 10
13.50000000000033
 20
6.499999999999972
 11
13.50000000000033
 21
-2.999999999997783
  0
ARC
  5
111
100
AcDbEntity
  8
openscad-servo-hole2
  6
ByLayer
 62
  256
370
   -1
100
AcDbCircle
 10
-14.60000000000011
 20
0
 40
2.499999999999994
100
AcDbArc
 50
93.43502658648208
 51
266.5649734135171
  0
ARC
  5
112
100
AcDbEntity
  8
openscad-servo-hole2
  6
ByLayer
 62
  256
370
   -1
100
AcDbCircle
 10
14.60000000000011
 20
-2.309263891220326e-13
 40
2.499999999999994
100
AcDbArc
 50
273.435026586482
 51
86.564973413517
  0
LINE
  5
113
100
AcDbEntity
  8
openscad-servo-hole2
  6
ByLayer
 62
  256
370
   -1
100
AcDbLine
 10
-14.74979153917761
 20
2.495508464179363
 11
-2.345634941365319
 21
3.240061221926318
  0
LINE
  5
114
100
AcDbEntity
  8
openscad-servo-hole2
  6
ByLayer
 62
  256
370
   -1
100
AcDbLine
 10
14.74979153917772
 20
2.495508464179121
 11
2.345634941365489
 21
3.240061221926275
  0
ARC
  5
115
100
AcDbEntity
  8
openscad-servo-hole2
  6
ByLayer
 62
  256
370
   -1
100
AcDbCircle
 10
0
 20
0
 40
3.999999999998224
100
AcDbArc
 50
54.09742683045305
 51
125.9025731695212
  0
LINE
  5
116
100
AcDbEntity
  8
openscad-servo-hole2
  6
ByLayer
 62
  256
370
   -1
100
AcDbLine
 10
-14.74979153917764
 20
-2.495508464179363
 11
-2.345634941367678
 21
-3.2400612219263
  0
LINE
  5
117
100
AcDbEntity
  8
openscad-servo-hole2
  6
ByLayer
 62
  256
370
   -1
100
AcDbLine
 10
14.74979153917761
 20
-2.495508464179601
 11
2.345634941367535
 21
-3.24006122192635
  0
ARC
  5
118
100
AcDbEntity
  8
openscad-servo-hole2
  6
ByLayer
 62
  256
370
   -1
100
AcDbCircle
 10
0
 20
0
 40
3.99999999999976
100
AcDbArc
 50
234.0974268304513
 51
305.9025731695701
  0
ARC
  5
119
100
AcDbEntity
  8
openscad-servo-hole3
  6
ByLayer
 62
  256
370
   -1
100
AcDbCircle
 10
0
 20
-14.60000000000011
 40
2.499999999999994
100
AcDbArc
 50
183.4350265864829
 51
356.5649734135179
  0
LINE
  5
11A
100
AcDbEntity
  8
openscad-servo-hole3
  6
ByLayer
 62
  256
370
   -1
100
AcDbLine
 10
-2.495508464179352
 20
-14.74979153917761
 11
-3.24006122192641
 21
-2.345634941365688
  0
LINE
  5
11B
100
AcDbEntity
  8
openscad-servo-hole3
  6
ByLayer
 62
  256
370
   -1
100
AcDbLine
 10
2.495508464179366
 20
-14.74979153917761
 11
3.240061221926226
 21
-2.345634941366683
  0
ARC
  5
11C
100
AcDbEntity
  8
openscad-servo-hole3
  6
ByLayer
 62
  256
370
   -1
100
AcDbCircle
 10
0
 20
0
 40
3.999999999998782
100
AcDbArc
 50
324.0974268304626
 51
215.9025731695243
  0
LINE
  5
11D
100
AcDbEntity
  8
chassis
  6
ByLayer
 62
  256
370
   -1
100
AcDbLine
 10
3.662419121523882
 20
183.7953426844665
 11
79.66241912152388
 21
183.7953426844665
  0
LINE
  5
11E
100
AcDbEntity
  8
chassis
  6
ByLayer
 62
  256
370
   -1
100
AcDbLine
 10
79.66241912152388
 20
154.5953426844665
 11
3.662419121523882
 21
154.5953426844665
  0
LINE
  5
11F
100
AcDbEntity
  8
chassis
  6
ByLayer
 62
  256
370
   -1
100
AcDbLine
 10
79.66241912152388
 20
183.7953426844665
 11
79.66241912152388
 21
154.5953426844665
  0
LINE
  5
120
100
AcDbEntity
  8
chassis
  6
ByLayer
 62
  256
370
   -1
100
AcDbLine
 10
3.662419121523882
 20
154.5953426844665
 11
3.662419121523882
 21
183.7953426844665
  0
LINE
  5
121
100
AcDbEntity
  8
chassis
  6
ByLayer
 62
  256
370
   -1
100
AcDbLine
 10
101.5
 20
128
 11
101.5
 21
56.00000000000001
  0
LINE
  5
122
100
AcDbEntity
  8
chassis
  6
ByLayer
 62
  256
370
   -1
100
AcDbLine
 10
99.5
 20
130
 11
99.5
 21
54.00000000000001
  0
LINE
  5
123
100
AcDbEntity
  8
chassis
  6
ByLayer
 62
  256
370
   -1
100
AcDbLine
 10
186.8000000000001
 20
56.00000000000001
 11
186.8000000000001
 21
128
  0
LINE
  5
124
100
AcDbEntity
  8
chassis
  6
ByLayer
 62
  256
370
   -1
100
AcDbLine
 10
188.8000000000001
 20
54.00000000000001
 11
188.8000000000001
 21
130
  0
CIRCLE
  5
125
100
AcDbEntity
  8
rpi
  6
ByLayer
 62
  256
370
   -1
100
AcDbCircle
 10
157.3
 20
121
 40
1.375
  0
CIRCLE
  5
126
100
AcDbEntity
  8
rpi
  6
ByLayer
 62
  256
370
   -1
100
AcDbCircle
 10
180.3000000000001
 20
121
 40
1.375
  0
CIRCLE
  5
127
100
AcDbEntity
  8
rpi
  6
ByLayer
 62
  256
370
   -1
100
AcDbCircle
 10
180.3000000000001
 20
63.00000000000001
 40
1.375
  0
CIRCLE
  5
128
100
AcDbEntity
  8
rpi
  6
ByLayer
 62
  256
370
   -1
100
AcDbCircle
 10
157.3
 20
63.00000000000001
 40
1.375
  0
ARC
  5
129
100
AcDbEntity
  8
rpi
  6
ByLayer
 62
  256
370
   -1
100
AcDbCircle
 10
156.8
 20
121.5
 40
3
100
AcDbArc
 50
90
 51
180
  0
ARC
  5
12A
100
AcDbEntity
  8
rpi
  6
ByLayer
 62
  256
370
   -1
100
AcDbCircle
 10
156.8
 20
62.50000000000001
 40
3
100
AcDbArc
 50
180
 51
270
  0
ARC
  5
12B
100
AcDbEntity
  8
rpi
  6
ByLayer
 62
  256
370
   -1
100
AcDbCircle
 10
180.8000000000001
 20
62.50000000000001
 40
3
100
AcDbArc
 50
270
 51
0
  0
ARC
  5
12C
100
AcDbEntity
  8
rpi
  6
ByLayer
 62
  256
370
   -1
100
AcDbCircle
 10
180.8000000000001
 20
121.5
 40
3
100
AcDbArc
 50
0
 51
90
  0
LINE
  5
12D
100
AcDbEntity
  8
rpi
  6
ByLayer
 62
  256
370
   -1
100
AcDbLine
 10
156.8
 20
59.50000000000001
 11
180.8000000000001
 21
59.50000000000001
  0
LINE
  5
12E
100
AcDbEntity
  8
rpi
  6
ByLayer
 62
  256
370
   -1
100
AcDbLine
 10
183.8000000000001
 20
62.50000000000001
 11
183.8000000000001
 21
121.5
  0
LINE
  5
12F
100
AcDbEntity
  8
rpi
  6
ByLayer
 62
  256
370
   -1
100
AcDbLine
 10
180.8000000000001
 20
124.5
 11
156.8
 21
124.5
  0
LINE
  5
130
100
AcDbEntity
  8
rpi
  6
ByLayer
 62
  256
370
   -1
100
AcDbLine
 10
153.8
 20
121.5
 11
153.8
 21
62.50000000000001
  0
LINE
  5
131
100
AcDbEntity
  8
chassis
  6
ByLayer
 62
  256
370
   -1
100
AcDbLine
 10
188.8000000000001
 20
130
 11
99.5
 21
130
  0
LINE
  5
132
100
AcDbEntity
  8
chassis
  6
ByLayer
 62
  256
370
   -1
100
AcDbLine
 10
99.5
 20
54.00000000000001
 11
188.8000000000001
 21
54.00000000000001
  0
LINE
  5
133
100
AcDbEntity
  8
chassis
  6
ByLayer
 62
  256
370
   -1
100
AcDbLine
 10
101.5
 20
56.00000000000001
 11
186.8000000000001
 21
56.00000000000001
  0
LINE
  5
134
100
AcDbEntity
  8
chassis
  6
ByLayer
 62
  256
370
   -1
100
AcDbLine
 10
186.8000000000001
 20
128
 11
101.5
 21
128
  0
CIRCLE
  5
135
100
AcDbEntity
  8
chassis
  6
ByLayer
 62
  256
370
   -1
100
AcDbCircle
 10
144.15
 20
100
 40
0.95
  0
LINE
  5
136
100
AcDbEntity
  8
chassis
  6
ByLayer
 62
  256
370
   -1
100
AcDbLine
 10
152.8
 20
103.35
 11
135.5
 21
103.35
  0
LINE
  5
137
100
AcDbEntity
  8
chassis
  6
ByLayer
 62
  256
370
   -1
100
AcDbLine
 10
150.8
 20
98.15000000000001
 11
137.5
 21
98.15000000000001
  0
LINE
  5
138
100
AcDbEntity
  8
chassis
  6
ByLayer
 62
  256
370
   -1
100
AcDbLine
 10
135.5
 20
103.35
 11
135.5
 21
94.65000000000001
  0
LINE
  5
139
100
AcDbEntity
  8
chassis
  6
ByLayer
 62
  256
370
   -1
100
AcDbLine
 10
152.8
 20
103.35
 11
152.8
 21
94.65000000000001
  0
LINE
  5
13A
100
AcDbEntity
  8
chassis
  6
ByLayer
 62
  256
370
   -1
100
AcDbLine
 10
137.5
 20
94.65000000000001
 11
137.5
 21
98.15000000000001
  0
LINE
  5
13B
100
AcDbEntity
  8
chassis
  6
ByLayer
 62
  256
370
   -1
100
AcDbLine
 10
150.8
 20
98.15000000000001
 11
150.8
 21
94.65000000000001
  0
LINE
  5
13C
100
AcDbEntity
  8
chassis
  6
ByLayer
 62
  256
370
   -1
100
AcDbLine
 10
137.5
 20
94.65000000000001
 11
135.5
 21
94.65000000000001
  0
LINE
  5
13D
100
AcDbEntity
  8
chassis
  6
ByLayer
 62
  256
370
   -1
100
AcDbLine
 10
150.8
 20
94.65000000000001
 11
152.8
 21
94.65000000000001
  0
LINE
  5
13E
100
AcDbEntity
  8
chassis
  6
ByLayer
 62
  256
370
   -1
100
AcDbLine
 10
172.15
 20
94.50000000000001
 11
172.15
 21
67.50000000000001
  0
LINE
  5
13F
100
AcDbEntity
  8
chassis
  6
ByLayer
 62
  256
370
   -1
100
AcDbLine
 10
116.15
 20
94.50000000000001
 11
116.15
 21
67.50000000000001
  0
CIRCLE
  5
140
100
AcDbEntity
  8
chassis
  6
ByLayer
 62
  256
370
   -1
100
AcDbCircle
 10
144.1499999999995
 20
72.7000000000012
 40
0.95
  0
LINE
  5
141
100
AcDbEntity
  8
chassis
  6
ByLayer
 62
  256
370
   -1
100
AcDbLine
 10
135.4999999999995
 20
69.35000000000119
 11
152.7999999999995
 21
69.35000000000119
  0
LINE
  5
142
100
AcDbEntity
  8
chassis
  6
ByLayer
 62
  256
370
   -1
100
AcDbLine
 10
137.4999999999995
 20
74.55000000000119
 11
150.7999999999995
 21
74.55000000000119
  0
LINE
  5
143
100
AcDbEntity
  8
chassis
  6
ByLayer
 62
  256
370
   -1
100
AcDbLine
 10
137.4999999999995
 20
78.05000000000118
 11
137.4999999999995
 21
74.55000000000119
  0
LINE
  5
144
100
AcDbEntity
  8
chassis
  6
ByLayer
 62
  256
370
   -1
100
AcDbLine
 10
150.7999999999995
 20
74.55000000000119
 11
150.7999999999995
 21
78.05000000000118
  0
LINE
  5
145
100
AcDbEntity
  8
chassis
  6
ByLayer
 62
  256
370
   -1
100
AcDbLine
 10
135.4999999999995
 20
78.05000000000118
 11
135.4999999999995
 21
69.35000000000119
  0
LINE
  5
146
100
AcDbEntity
  8
chassis
  6
ByLayer
 62
  256
370
   -1
100
AcDbLine
 10
152.7999999999995
 20
69.35000000000119
 11
152.7999999999995
 21
78.05000000000118
  0
LINE
  5
147
100
AcDbEntity
  8
chassis
  6
ByLayer
 62
  256
370
   -1
100
AcDbLine
 10
135.4999999999995
 20
78.05000000000118
 11
137.4999999999995
 21
78.05000000000118
  0
LINE
  5
148
100
AcDbEntity
  8
chassis
  6
ByLayer
 62
  256
370
   -1
100
AcDbLine
 10
150.7999999999995
 20
78.05000000000118
 11
152.7999999999995
 21
78.05000000000118
  0
CIRCLE
  5
149
100
AcDbEntity
  8
servo2
  6
ByLayer
 62
  256
370
   -1
100
AcDbCircle
 10
144.15
 20
81.00000000000001
 40
2.3
  0
ARC
  5
14A
100
AcDbEntity
  8
servo2
  6
ByLayer
 62
  256
370
   -1
100
AcDbCircle
 10
144.15
 20
87.30000000000011
 40
2.5
100
AcDbArc
 50
0
 51
180.0000000000006
  0
LINE
  5
14B
100
AcDbEntity
  8
servo2
  6
ByLayer
 62
  256
370
   -1
100
AcDbLine
 10
141.65
 20
87.3
 11
141.65
 21
86.3441556863536
  0
LINE
  5
14C
100
AcDbEntity
  8
servo2
  6
ByLayer
 62
  256
370
   -1
100
AcDbLine
 10
146.65
 20
87.30000000000011
 11
146.65
 21
86.34415568635272
  0
ARC
  5
14D
100
AcDbEntity
  8
servo2
  6
ByLayer
 62
  256
370
   -1
100
AcDbCircle
 10
144.15
 20
81.00000000000001
 40
5.899999999997886
100
AcDbArc
 50
115.0702279493481
 51
64.92977205064817
  0
LWPOLYLINE
  5
14E
100
AcDbEntity
  8
servo2
  6
ByLayer
 62
  256
370
   -1
100
AcDbPolyline
 90
    4
 70
    1
 43
0
 10
138.2500000000012
 20
75.1000000000012
 10
150.0499999999995
 20
75.1000000000012
 10
150.0499999999995
 20
97.60000000000012
 10
138.2500000000012
 20
97.60000000000012
  0
ARC
  5
14F
100
AcDbEntity
  8
servo2
  6
ByLayer
 62
  256
370
   -1
100
AcDbCircle
 10
144.1499999999995
 20
72.7000000000012
 40
0.9999999999912155
100
AcDbArc
 50
310.5416018737923
 51
229.4583981260662
  0
ARC
  5
150
100
AcDbEntity
  8
servo2
  6
ByLayer
 62
  256
370
   -1
100
AcDbCircle
 10
144.1499999999995
 20
100
 40
0.9999999999903562
100
AcDbArc
 50
130.5416018736042
 51
49.45839812602355
  0
LINE
  5
151
100
AcDbEntity
  8
servo2
  6
ByLayer
 62
  256
370
   -1
100
AcDbLine
 10
143.4999999999995
 20
100.7599342076615
 11
143.4999999999995
 21
102.3
  0
LINE
  5
152
100
AcDbEntity
  8
servo2
  6
ByLayer
 62
  256
370
   -1
100
AcDbLine
 10
144.7999999999995
 20
100.7599342076515
 11
144.7999999999995
 21
102.3
  0
LINE
  5
153
100
AcDbEntity
  8
servo2
  6
ByLayer
 62
  256
370
   -1
100
AcDbLine
 10
143.4999999999995
 20
71.94006579234382
 11
143.4999999999995
 21
70.40000000000121
  0
LINE
  5
154
100
AcDbEntity
  8
servo2
  6
ByLayer
 62
  256
370
   -1
100
AcDbLine
 10
144.7999999999995
 20
71.94006579234012
 11
144.7999999999995
 21
70.40000000000121
  0
LINE
  5
155
100
AcDbEntity
  8
servo2
  6
ByLayer
 62
  256
370
   -1
100
AcDbLine
 10
143.4999999999995
 20
70.40000000000121
 11
138.2500000000012
 21
70.40000000000121
  0
LINE
  5
156
100
AcDbEntity
  8
servo2
  6
ByLayer
 62
  256
370
   -1
100
AcDbLine
 10
138.2500000000012
 20
70.40000000000121
 11
138.2500000000012
 21
75.1000000000012
  0
LINE
  5
157
100
AcDbEntity
  8
servo2
  6
ByLayer
 62
  256
370
   -1
100
AcDbLine
 10
144.7999999999995
 20
70.40000000000121
 11
150.0499999999995
 21
70.40000000000121
  0
LINE
  5
158
100
AcDbEntity
  8
servo2
  6
ByLayer
 62
  256
370
   -1
100
AcDbLine
 10
150.0499999999995
 20
70.40000000000121
 11
150.0499999999995
 21
75.1000000000012
  0
LINE
  5
159
100
AcDbEntity
  8
servo2
  6
ByLayer
 62
  256
370
   -1
100
AcDbLine
 10
143.4999999999995
 20
102.3
 11
138.2500000000012
 21
102.3
  0
LINE
  5
15A
100
AcDbEntity
  8
servo2
  6
ByLayer
 62
  256
370
   -1
100
AcDbLine
 10
138.2500000000012
 20
102.3
 11
138.2500000000012
 21
97.59999999999999
  0
LINE
  5
15B
100
AcDbEntity
  8
servo2
  6
ByLayer
 62
  256
370
   -1
100
AcDbLine
 10
144.7999999999995
 20
102.3
 11
150.0499999999995
 21
102.3
  0
LINE
  5
15C
100
AcDbEntity
  8
servo2
  6
ByLayer
 62
  256
370
   -1
100
AcDbLine
 10
150.0499999999995
 20
102.3
 11
150.0499999999995
 21
97.60000000000012
  0
LINE
  5
15D
100
AcDbEntity
  8
servo2
  6
ByLayer
 62
  256
370
   -1
100
AcDbLine
 10
129.4301667686579
 20
82.9964067713435
 11
141.9849364905418
 21
83.75000000000004
  0
LINE
  5
15E
100
AcDbEntity
  8
servo2
  6
ByLayer
 62
  256
370
   -1
100
AcDbLine
 10
129.4301667686579
 20
79.00359322865653
 11
141.9849364905393
 21
78.25000000000001
  0
ARC
  5
15F
100
AcDbEntity
  8
servo2
  6
ByLayer
 62
  256
370
   -1
100
AcDbCircle
 10
129.5499999999999
 20
81.00000000000001
 40
1.999999999999994
100
AcDbArc
 50
93.43502658648208
 51
266.5649734135171
  0
LINE
  5
160
100
AcDbEntity
  8
servo2
  6
ByLayer
 62
  256
370
   -1
100
AcDbLine
 10
158.8698332313422
 20
82.99640677134326
 11
146.3150635094583
 21
83.75
  0
LINE
  5
161
100
AcDbEntity
  8
servo2
  6
ByLayer
 62
  256
370
   -1
100
AcDbLine
 10
158.8698332313421
 20
79.00359322865629
 11
146.3150635094607
 21
78.24999999999997
  0
ARC
  5
162
100
AcDbEntity
  8
servo2
  6
ByLayer
 62
  256
370
   -1
100
AcDbCircle
 10
158.7500000000001
 20
80.99999999999979
 40
1.999999999999994
100
AcDbArc
 50
273.435026586482
 51
86.564973413517
  0
ARC
  5
163
100
AcDbEntity
  8
servo2
  6
ByLayer
 62
  256
370
   -1
100
AcDbCircle
 10
144.15
 20
81.00000000000001
 40
3.499999999998224
100
AcDbArc
 50
51.78678929826563
 51
128.2132107017009
  0
ARC
  5
164
100
AcDbEntity
  8
servo2
  6
ByLayer
 62
  256
370
   -1
100
AcDbCircle
 10
144.15
 20
81.00000000000001
 40
3.49999999999976
100
AcDbArc
 50
231.7867892982668
 51
308.2132107017321
  0
ARC
  5
165
100
AcDbEntity
  8
chassis
  6
ByLayer
 62
  256
370
   -1
100
AcDbCircle
 10
129.5499999999999
 20
81.00000000000001
 40
2.499999999999994
100
AcDbArc
 50
93.43502658648208
 51
266.5649734135171
  0
ARC
  5
166
100
AcDbEntity
  8
chassis
  6
ByLayer
 62
  256
370
   -1
100
AcDbCircle
 10
158.7500000000001
 20
80.99999999999979
 40
2.499999999999994
100
AcDbArc
 50
273.435026586482
 51
86.564973413517
  0
LINE
  5
167
100
AcDbEntity
  8
chassis
  6
ByLayer
 62
  256
370
   -1
100
AcDbLine
 10
129.4002084608224
 20
83.49550846417938
 11
141.8043650586347
 21
84.24006122192634
  0
LINE
  5
168
100
AcDbEntity
  8
chassis
  6
ByLayer
 62
  256
370
   -1
100
AcDbLine
 10
158.8997915391777
 20
83.49550846417914
 11
146.4956349413655
 21
84.24006122192628
  0
ARC
  5
169
100
AcDbEntity
  8
chassis
  6
ByLayer
 62
  256
370
   -1
100
AcDbCircle
 10
144.15
 20
81.00000000000001
 40
3.999999999998224
100
AcDbArc
 50
54.09742683045305
 51
125.9025731695212
  0
LINE
  5
16A
100
AcDbEntity
  8
chassis
  6
ByLayer
 62
  256
370
   -1
100
AcDbLine
 10
129.4002084608224
 20
78.50449153582065
 11
141.8043650586323
 21
77.75993877807372
  0
LINE
  5
16B
100
AcDbEntity
  8
chassis
  6
ByLayer
 62
  256
370
   -1
100
AcDbLine
 10
158.8997915391776
 20
78.50449153582042
 11
146.4956349413675
 21
77.75993877807366
  0
ARC
  5
16C
100
AcDbEntity
  8
chassis
  6
ByLayer
 62
  256
370
   -1
100
AcDbCircle
 10
144.15
 20
81.00000000000001
 40
3.99999999999976
100
AcDbArc
 50
234.0974268304513
 51
305.9025731695701
  0
LINE
  5
16D
100
AcDbEntity
  8
chassis
  6
ByLayer
 62
  256
370
   -1
100
AcDbLine
 10
172.15
 20
94.50000000000001
 11
179.65
 21
94.50000000000001
  0
LINE
  5
16E
100
AcDbEntity
  8
chassis
  6
ByLayer
 62
  256
370
   -1
100
AcDbLine
 10
172.15
 20
67.50000000000001
 11
179.65
 21
67.50000000000001
  0
LINE
  5
16F
100
AcDbEntity
  8
chassis
  6
ByLayer
 62
  256
370
   -1
100
AcDbLine
 10
179.65
 20
94.50000000000001
 11
179.65
 21
67.50000000000001
  0
LINE
  5
170
100
AcDbEntity
  8
chassis
  6
ByLayer
 62
  256
370
   -1
100
AcDbLine
 10
108.65
 20
94.50000000000001
 11
108.65
 21
67.50000000000003
  0
LINE
  5
171
100
AcDbEntity
  8
chassis
  6
ByLayer
 62
  256
370
   -1
100
AcDbLine
 10
108.65
 20
94.50000000000001
 11
172.15
 21
94.5
  0
LINE
  5
172
100
AcDbEntity
  8
chassis
  6
ByLayer
 62
  256
370
   -1
100
AcDbLine
 10
108.65
 20
67.50000000000001
 11
172.15
 21
67.50000000000001
  0
LINE
  5
173
100
AcDbEntity
  8
openscad-base-hole
  6
ByLayer
 62
  256
370
   -1
100
AcDbLine
 10
-19.32049150281377
 20
-0
 11
-17.82049150281377
 21
3
  0
LINE
  5
174
100
AcDbEntity
  8
openscad-base-hole
  6
ByLayer
 62
  256
370
   -1
100
AcDbLine
 10
17.82049150281377
 20
3
 11
19.32049150281377
 21
-0
  0
LINE
  5
175
100
AcDbEntity
  8
openscad-base-hole
  6
ByLayer
 62
  256
370
   -1
100
AcDbLine
 10
-17.82049150281377
 20
3
 11
17.82049150281377
 21
3
  0
LINE
  5
176
100
AcDbEntity
  8
openscad-base-hole
  6
ByLayer
 62
  256
370
   -1
100
AcDbLine
 10
19.32049150281377
 20
-0
 11
-19.32049150281377
 21
-0
  0
LINE
  5
177
100
AcDbEntity
  8
openscad-top1
  6
ByLayer
 62
  256
370
   -1
100
AcDbLine
 10
-8.111803398872389
 20
-3
 11
-13.49999999999963
 21
-3
  0
LINE
  5
178
100
AcDbEntity
  8
openscad-top1
  6
ByLayer
 62
  256
370
   -1
100
AcDbLine
 10
-9.66180339887239
 20
0.1
 11
-8.111803398872389
 21
-3
  0
LINE
  5
179
100
AcDbEntity
  8
openscad-top1
  6
ByLayer
 62
  256
370
   -1
100
AcDbLine
 10
9.66180339887236
 20
0.1
 11
-9.66180339887239
 21
0.1
  0
LINE
  5
17A
100
AcDbEntity
  8
openscad-top1
  6
ByLayer
 62
  256
370
   -1
100
AcDbLine
 10
13.50000000000033
 20
-2.999999999997783
 11
8.111803398873612
 21
-2.999999999998674
  0
LINE
  5
17B
100
AcDbEntity
  8
openscad-top1
  6
ByLayer
 62
  256
370
   -1
100
AcDbLine
 10
8.111803398873612
 20
-2.999999999998675
 11
9.66180339887236
 21
0.1
  0
LWPOLYLINE
  5
17C
100
AcDbEntity
  8
power
  6
ByLayer
 62
  256
370
   -1
100
AcDbPolyline
 90
    4
 70
    1
 43
0
 10
134.5
 20
125
 10
103.5
 20
125
 10
103.5
 20
59
 10
134.5
 20
59
  0
CIRCLE
  5
17D
100
AcDbEntity
  8
power
  6
ByLayer
 62
  256
370
   -1
100
AcDbCircle
 10
106.5
 20
122
 40
2
  0
CIRCLE
  5
17E
100
AcDbEntity
  8
power
  6
ByLayer
 62
  256
370
   -1
100
AcDbCircle
 10
131.5
 20
122
 40
2
  0
CIRCLE
  5
17F
100
AcDbEntity
  8
power
  6
ByLayer
 62
  256
370
   -1
100
AcDbCircle
 10
131.5
 20
62
 40
2
  0
CIRCLE
  5
180
100
AcDbEntity
  8
power
  6
ByLayer
 62
  256
370
   -1
100
AcDbCircle
 10
106.5
 20
62
 40
2
  0
LINE
  5
181
100
AcDbEntity
  8
chassis
  6
ByLayer
 62
  256
370
   -1
100
AcDbLine
 10
3.662419121523881
 20
181.7953426844665
 11
79.66241912152388
 21
181.7953426844665
  0
LINE
  5
182
100
AcDbEntity
  8
chassis
  6
ByLayer
 62
  256
370
   -1
100
AcDbLine
 10
188.8000000000001
 20
181.7953426844665
 11
99.5
 21
181.7953426844665
  0
CIRCLE
  5
183
100
AcDbEntity
  8
chassis
  6
ByLayer
 62
  256
370
   -1
100
AcDbCircle
 10
106.5
 20
122
 40
1.5
  0
CIRCLE
  5
184
100
AcDbEntity
  8
chassis
  6
ByLayer
 62
  256
370
   -1
100
AcDbCircle
 10
131.5
 20
122
 40
1.5
  0
CIRCLE
  5
185
100
AcDbEntity
  8
chassis
  6
ByLayer
 62
  256
370
   -1
100
AcDbCircle
 10
106.5
 20
62
 40
1.5
  0
CIRCLE
  5
186
100
AcDbEntity
  8
chassis
  6
ByLayer
 62
  256
370
   -1
100
AcDbCircle
 10
131.5
 20
62
 40
1.5
  0
CIRCLE
  5
187
100
AcDbEntity
  8
chassis
  6
ByLayer
 62
  256
370
   -1
100
AcDbCircle
 10
106.5
 20
122
 40
4.5
  0
CIRCLE
  5
188
100
AcDbEntity
  8
chassis
  6
ByLayer
 62
  256
370
   -1
100
AcDbCircle
 10
131.5
 20
122
 40
4.5
  0
CIRCLE
  5
189
100
AcDbEntity
  8
chassis
  6
ByLayer
 62
  256
370
   -1
100
AcDbCircle
 10
106.5
 20
62
 40
4.5
  0
CIRCLE
  5
18A
100
AcDbEntity
  8
chassis
  6
ByLayer
 62
  256
370
   -1
100
AcDbCircle
 10
131.5
 20
62
 40
4.5
  0
CIRCLE
  5
18B
100
AcDbEntity
  8
chassis
  6
ByLayer
 62
  256
370
   -1
100
AcDbCircle
 10
157.3
 20
121
 40
1.1
  0
CIRCLE
  5
18C
100
AcDbEntity
  8
chassis
  6
ByLayer
 62
  256
370
   -1
100
AcDbCircle
 10
180.3000000000001
 20
121
 40
1.1
  0
CIRCLE
  5
18D
100
AcDbEntity
  8
chassis
  6
ByLayer
 62
  256
370
   -1
100
AcDbCircle
 10
157.3
 20
63.00000000000001
 40
1.1
  0
CIRCLE
  5
18E
100
AcDbEntity
  8
chassis
  6
ByLayer
 62
  256
370
   -1
100
AcDbCircle
 10
180.3000000000001
 20
63.00000000000001
 40
1.1
  0
CIRCLE
  5
18F
100
AcDbEntity
  8
chassis
  6
ByLayer
 62
  256
370
   -1
100
AcDbCircle
 10
157.3
 20
121
 40
4.1
  0
CIRCLE
  5
190
100
AcDbEntity
  8
chassis
  6
ByLayer
 62
  256
370
   -1
100
AcDbCircle
 10
180.3000000000001
 20
121
 40
4.1
  0
CIRCLE
  5
191
100
AcDbEntity
  8
chassis
  6
ByLayer
 62
  256
370
   -1
100
AcDbCircle
 10
157.3
 20
63.00000000000001
 40
4.1
  0
CIRCLE
  5
192
100
AcDbEntity
  8
chassis
  6
ByLayer
 62
  256
370
   -1
100
AcDbCircle
 10
180.3000000000001
 20
63.00000000000001
 40
4.1
  0
LWPOLYLINE
  5
193
100
AcDbEntity
  8
chassis
  6
ByLayer
 62
  256
370
   -1
100
AcDbPolyline
 90
    4
 70
    1
 43
0
 10
111.5
 20
128
 10
121.5
 20
128
 10
121.5
 20
126
 10
111.5
 20
126
  0
LWPOLYLINE
  5
194
100
AcDbEntity
  8
chassis
  6
ByLayer
 62
  256
370
   -1
100
AcDbPolyline
 90
    4
 70
    1
 43
0
 10
166.8000000000001
 20
128
 10
176.8000000000001
 20
128
 10
176.8000000000001
 20
126
 10
166.8000000000001
 20
126
  0
LWPOLYLINE
  5
195
100
AcDbEntity
  8
chassis
  6
ByLayer
 62
  256
370
   -1
100
AcDbPolyline
 90
    4
 70
    1
 43
0
 10
166.8000000000001
 20
58.00000000000001
 10
176.8000000000001
 20
58.00000000000001
 10
176.8000000000001
 20
56.00000000000001
 10
166.8000000000001
 20
56.00000000000001
  0
LWPOLYLINE
  5
196
100
AcDbEntity
  8
chassis
  6
ByLayer
 62
  256
370
   -1
100
AcDbPolyline
 90
    4
 70
    1
 43
0
 10
111.5
 20
58.00000000000001
 10
121.5
 20
58.00000000000001
 10
121.5
 20
56.00000000000001
 10
111.5
 20
56.00000000000001
  0
CIRCLE
  5
197
100
AcDbEntity
  8
chassis
  6
ByLayer
 62
  256
370
   -1
100
AcDbCircle
 10
144.15
 20
125.5
 40
1
  0
ARC
  5
198
100
AcDbEntity
  8
chassis
  6
ByLayer
 62
  256
370
   -1
100
AcDbCircle
 10
144.15
 20
125.5
 40
2.5
100
AcDbArc
 50
180
 51
0
  0
LINE
  5
199
100
AcDbEntity
  8
chassis
  6
ByLayer
 62
  256
370
   -1
100
AcDbLine
 10
141.65
 20
128
 11
141.65
 21
125.5000032983974
  0
LINE
  5
19A
100
AcDbEntity
  8
chassis
  6
ByLayer
 62
  256
370
   -1
100
AcDbLine
 10
146.65
 20
128
 11
146.65
 21
125.5000057696828
  0
CIRCLE
  5
19B
100
AcDbEntity
  8
chassis
  6
ByLayer
 62
  256
370
   -1
100
AcDbCircle
 10
144.15
 20
58.5
 40
1
  0
ARC
  5
19C
100
AcDbEntity
  8
chassis
  6
ByLayer
 62
  256
370
   -1
100
AcDbCircle
 10
144.15
 20
58.5
 40
2.5
100
AcDbArc
 50
0
 51
180
  0
LINE
  5
19D
100
AcDbEntity
  8
chassis
  6
ByLayer
 62
  256
370
   -1
100
AcDbLine
 10
141.65
 20
56
 11
141.65
 21
58.4999967016026
  0
LINE
  5
19E
100
AcDbEntity
  8
chassis
  6
ByLayer
 62
  256
370
   -1
100
AcDbLine
 10
146.65
 20
56
 11
146.65
 21
58.49999423031718
  0
LINE
  5
19F
100
AcDbEntity
  8
0
  6
ByLayer
 62
  256
370
   -1
100
AcDbLine
 10
3.662419121523882
 20
159.5953426844665
 11
188.8000000000001
 21
159.5953426844665
  0
LINE
  5
1A0
100
AcDbEntity
  8
0
  6
ByLayer
 62
  256
370
   -1
100
AcDbLine
 10
3.662419121523882
 20
161.0953426844665
 11
188.8000000000001
 21
161.0953426844665
  0
LINE
  5
1A1
100
AcDbEntity
  8
0
  6
ByLayer
 62
  256
370
   -1
100
AcDbLine
 10
103.5
 20
125
 11
103.5
 21
181.0953426844665
  0
LINE
  5
1A2
100
AcDbEntity
  8
0
  6
ByLayer
 62
  256
370
   -1
100
AcDbLine
 10
134.5
 20
125
 11
134.5
 21
181.0953426844665
  0
LINE
  5
1A3
100
AcDbEntity
  8
0
  6
ByLayer
 62
  256
370
   -1
100
AcDbLine
 10
153.8
 20
125
 11
153.8
 21
181.0953426844665
  0
LINE
  5
1A4
100
AcDbEntity
  8
0
  6
ByLayer
 62
  256
370
   -1
100
AcDbLine
 10
183.8000000000001
 20
125
 11
183.8000000000001
 21
181.0953426844665
  0
LWPOLYLINE
  5
1A5
100
AcDbEntity
  8
power
  6
ByLayer
 62
  256
370
   -1
100
AcDbPolyline
 90
    4
 70
    1
 43
0
 10
103.5
 20
161.0953426844665
 10
134.5
 20
161.0953426844665
 10
134.5
 20
159.5953426844665
 10
103.5
 20
159.5953426844665
  0
LWPOLYLINE
  5
1A6
100
AcDbEntity
  8
rpi
  6
ByLayer
 62
  256
370
   -1
100
AcDbPolyline
 90
    4
 70
    1
 43
0
 10
153.8
 20
161.0953426844665
 10
183.8000000000001
 20
161.0953426844665
 10
183.8000000000001
 20
159.5953426844665
 10
153.8
 20
159.5953426844665
  0
LINE
  5
1A7
100
AcDbEntity
  8
0
  6
ByLayer
 62
  256
370
   -1
100
AcDbLine
 10
106.5
 20
125
 11
106.5
 21
181.0953426844665
  0
LINE
  5
1A8
100
AcDbEntity
  8
0
  6
ByLayer
 62
  256
370
   -1
100
AcDbLine
 10
131.5
 20
125
 11
131.5
 21
181.0953426844665
  0
LINE
  5
1A9
100
AcDbEntity
  8
0
  6
ByLayer
 62
  256
370
   -1
100
AcDbLine
 10
157.3
 20
125
 11
157.3
 21
181.0953426844665
  0
LINE
  5
1AA
100
AcDbEntity
  8
0
  6
ByLayer
 62
  256
370
   -1
100
AcDbLine
 10
180.3000000000001
 20
125
 11
180.3000000000001
 21
181.0953426844665
  0
LWPOLYLINE
  5
1AB
100
AcDbEntity
  8
chassis
  6
ByLayer
 62
  256
370
   -1
100
AcDbPolyline
 90
    4
 70
    1
 43
0
 10
102
 20
156.5953426844665
 10
111
 20
156.5953426844665
 10
111
 20
159.5953426844665
 10
102
 20
159.5953426844665
  0
LWPOLYLINE
  5
1AC
100
AcDbEntity
  8
chassis
  6
ByLayer
 62
  256
370
   -1
100
AcDbPolyline
 90
    4
 70
    1
 43
0
 10
127
 20
156.5953426844665
 10
136
 20
156.5953426844665
 10
136
 20
159.5953426844665
 10
127
 20
159.5953426844665
  0
LINE
  5
1AD
100
AcDbEntity
  8
0
  6
ByLayer
 62
  256
370
   -1
100
AcDbLine
 10
157.3
 20
121
 11
180.3000000000001
 21
121
  0
LWPOLYLINE
  5
1AE
100
AcDbEntity
  8
chassis
  6
ByLayer
 62
  256
370
   -1
100
AcDbPolyline
 90
    4
 70
    1
 43
0
 10
153.2
 20
159.5953426844665
 10
161.4
 20
159.5953426844665
 10
161.4
 20
156.5953426844665
 10
153.2
 20
156.5953426844665
  0
LWPOLYLINE
  5
1AF
100
AcDbEntity
  8
chassis
  6
ByLayer
 62
  256
370
   -1
100
AcDbPolyline
 90
    4
 70
    1
 43
0
 10
176.2000000000001
 20
159.5953426844665
 10
184.4000000000001
 20
159.5953426844665
 10
184.4000000000001
 20
156.5953426844665
 10
176.2000000000001
 20
156.5953426844665
  0
LINE
  5
1B0
100
AcDbEntity
  8
chassis
  6
ByLayer
 62
  256
370
   -1
100
AcDbLine
 10
111.5
 20
156.5953426844665
 11
111.5
 21
181.7953426844665
  0
LINE
  5
1B1
100
AcDbEntity
  8
chassis
  6
ByLayer
 62
  256
370
   -1
100
AcDbLine
 10
121.5
 20
156.5953426844665
 11
121.5
 21
181.7953426844665
  0
LINE
  5
1B2
100
AcDbEntity
  8
chassis
  6
ByLayer
 62
  256
370
   -1
100
AcDbLine
 10
166.8000000000001
 20
156.5953426844665
 11
166.8000000000001
 21
181.7953426844665
  0
LINE
  5
1B3
100
AcDbEntity
  8
chassis
  6
ByLayer
 62
  256
370
   -1
100
AcDbLine
 10
176.8000000000001
 20
156.5953426844665
 11
176.8000000000001
 21
181.7953426844665
  0
LINE
  5
1B4
100
AcDbEntity
  8
chassis
  6
ByLayer
 62
  256
370
   -1
100
AcDbLine
 10
141.65
 20
156.5953426844665
 11
141.65
 21
181.7953426844665
  0
LINE
  5
1B5
100
AcDbEntity
  8
chassis
  6
ByLayer
 62
  256
370
   -1
100
AcDbLine
 10
146.65
 20
156.5953426844665
 11
146.65
 21
181.7953426844665
  0
ARC
  5
1B6
100
AcDbEntity
  8
openscad-box-board
  6
ByLayer
 62
  256
370
   -1
100
AcDbCircle
 10
0
 20
3
 40
0
100
AcDbArc
 50
0
 51
0
  0
CIRCLE
  5
1B7
100
AcDbEntity
  8
openscad-box-board
  6
ByLayer
 62
  256
370
   -1
100
AcDbCircle
 10
7
 20
67.99999999999999
 40
1.5
  0
CIRCLE
  5
1B8
100
AcDbEntity
  8
openscad-box-board
  6
ByLayer
 62
  256
370
   -1
100
AcDbCircle
 10
32
 20
67.99999999999999
 40
1.5
  0
CIRCLE
  5
1B9
100
AcDbEntity
  8
openscad-box-board
  6
ByLayer
 62
  256
370
   -1
100
AcDbCircle
 10
7
 20
7.999999999999986
 40
1.5
  0
CIRCLE
  5
1BA
100
AcDbEntity
  8
openscad-box-board
  6
ByLayer
 62
  256
370
   -1
100
AcDbCircle
 10
32
 20
7.999999999999986
 40
1.5
  0
CIRCLE
  5
1BB
100
AcDbEntity
  8
openscad-box-board
  6
ByLayer
 62
  256
370
   -1
100
AcDbCircle
 10
7
 20
67.99999999999999
 40
4.5
  0
CIRCLE
  5
1BC
100
AcDbEntity
  8
openscad-box-board
  6
ByLayer
 62
  256
370
   -1
100
AcDbCircle
 10
32
 20
67.99999999999999
 40
4.5
  0
CIRCLE
  5
1BD
100
AcDbEntity
  8
openscad-box-board
  6
ByLayer
 62
  256
370
   -1
100
AcDbCircle
 10
7
 20
7.999999999999986
 40
4.5
  0
CIRCLE
  5
1BE
100
AcDbEntity
  8
openscad-box-board
  6
ByLayer
 62
  256
370
   -1
100
AcDbCircle
 10
32
 20
7.999999999999986
 40
4.5
  0
CIRCLE
  5
1BF
100
AcDbEntity
  8
openscad-box-board
  6
ByLayer
 62
  256
370
   -1
100
AcDbCircle
 10
57.80000000000001
 20
66.99999999999999
 40
1.1
  0
CIRCLE
  5
1C0
100
AcDbEntity
  8
openscad-box-board
  6
ByLayer
 62
  256
370
   -1
100
AcDbCircle
 10
80.8000000000001
 20
66.99999999999999
 40
1.1
  0
CIRCLE
  5
1C1
100
AcDbEntity
  8
openscad-box-board
  6
ByLayer
 62
  256
370
   -1
100
AcDbCircle
 10
57.80000000000001
 20
8.999999999999993
 40
1.1
  0
CIRCLE
  5
1C2
100
AcDbEntity
  8
openscad-box-board
  6
ByLayer
 62
  256
370
   -1
100
AcDbCircle
 10
80.8000000000001
 20
8.999999999999993
 40
1.1
  0
CIRCLE
  5
1C3
100
AcDbEntity
  8
openscad-box-board
  6
ByLayer
 62
  256
370
   -1
100
AcDbCircle
 10
57.80000000000001
 20
66.99999999999999
 40
4.1
  0
CIRCLE
  5
1C4
100
AcDbEntity
  8
openscad-box-board
  6
ByLayer
 62
  256
370
   -1
100
AcDbCircle
 10
80.8000000000001
 20
66.99999999999999
 40
4.1
  0
CIRCLE
  5
1C5
100
AcDbEntity
  8
openscad-box-board
  6
ByLayer
 62
  256
370
   -1
100
AcDbCircle
 10
57.80000000000001
 20
8.999999999999993
 40
4.1
  0
CIRCLE
  5
1C6
100
AcDbEntity
  8
openscad-box-board
  6
ByLayer
 62
  256
370
   -1
100
AcDbCircle
 10
80.8000000000001
 20
8.999999999999993
 40
4.1
  0
LWPOLYLINE
  5
1C7
100
AcDbEntity
  8
openscad-box-support
  6
ByLayer
 62
  256
370
   -1
100
AcDbPolyline
 90
    4
 70
    1
 43
0
 10
12
 20
73.99999999999999
 10
22
 20
73.99999999999999
 10
22
 20
71.99999999999999
 10
12
 20
71.99999999999999
  0
LWPOLYLINE
  5
1C8
100
AcDbEntity
  8
openscad-box-support
  6
ByLayer
 62
  256
370
   -1
100
AcDbPolyline
 90
    4
 70
    1
 43
0
 10
67.3000000000001
 20
73.99999999999999
 10
77.3000000000001
 20
73.99999999999999
 10
77.3000000000001
 20
71.99999999999999
 10
67.3000000000001
 20
71.99999999999999
  0
LWPOLYLINE
  5
1C9
100
AcDbEntity
  8
openscad-box-support
  6
ByLayer
 62
  256
370
   -1
100
AcDbPolyline
 90
    4
 70
    1
 43
0
 10
67.3000000000001
 20
3.999999999999993
 10
77.3000000000001
 20
3.999999999999993
 10
77.3000000000001
 20
1.999999999999993
 10
67.3000000000001
 20
1.999999999999993
  0
LWPOLYLINE
  5
1CA
100
AcDbEntity
  8
openscad-box-support
  6
ByLayer
 62
  256
370
   -1
100
AcDbPolyline
 90
    4
 70
    1
 43
0
 10
12
 20
3.999999999999993
 10
22
 20
3.999999999999993
 10
22
 20
1.999999999999993
 10
12
 20
1.999999999999993
  0
CIRCLE
  5
1CB
100
AcDbEntity
  8
openscad-box-screws
  6
ByLayer
 62
  256
370
   -1
100
AcDbCircle
 10
44.65000000000003
 20
71.49999999999999
 40
1
  0
ARC
  5
1CC
100
AcDbEntity
  8
openscad-box-screws
  6
ByLayer
 62
  256
370
   -1
100
AcDbCircle
 10
44.65000000000003
 20
71.49999999999999
 40
2.5
100
AcDbArc
 50
180
 51
0
  0
LINE
  5
1CD
100
AcDbEntity
  8
openscad-box-screws
  6
ByLayer
 62
  256
370
   -1
100
AcDbLine
 10
42.15000000000003
 20
73.99999999999999
 11
42.15000000000003
 21
71.50000329839739
  0
LINE
  5
1CE
100
AcDbEntity
  8
openscad-box-screws
  6
ByLayer
 62
  256
370
   -1
100
AcDbLine
 10
47.15000000000003
 20
73.99999999999999
 11
47.15000000000003
 21
71.5000057696828
  0
CIRCLE
  5
1CF
100
AcDbEntity
  8
openscad-box-screws
  6
ByLayer
 62
  256
370
   -1
100
AcDbCircle
 10
44.65000000000003
 20
4.499999999999986
 40
1
  0
ARC
  5
1D0
100
AcDbEntity
  8
openscad-box-screws
  6
ByLayer
 62
  256
370
   -1
100
AcDbCircle
 10
44.65000000000003
 20
4.499999999999986
 40
2.5
100
AcDbArc
 50
0
 51
180
  0
LINE
  5
1D1
100
AcDbEntity
  8
openscad-box-screws
  6
ByLayer
 62
  256
370
   -1
100
AcDbLine
 10
42.15000000000003
 20
1.999999999999986
 11
42.15000000000003
 21
4.499996701602583
  0
LINE
  5
1D2
100
AcDbEntity
  8
openscad-box-screws
  6
ByLayer
 62
  256
370
   -1
100
AcDbLine
 10
47.15000000000003
 20
1.999999999999986
 11
47.15000000000003
 21
4.499994230317171
  0
LINE
  5
1D3
100
AcDbEntity
  8
openscad-box-screws
  6
ByLayer
 62
  256
370
   -1
100
AcDbLine
 10
42.15000000000003
 20
73.99999999999999
 11
47.15000000000003
 21
73.99999999999999
  0
LINE
  5
1D4
100
AcDbEntity
  8
openscad-box-screws
  6
ByLayer
 62
  256
370
   -1
100
AcDbLine
 10
42.15000000000003
 20
1.999999999999986
 11
47.15000000000003
 21
1.999999999999986
  0
ARC
  5
1D5
100
AcDbEntity
  8
openscad-box-screwsbase
  6
ByLayer
 62
  256
370
   -1
100
AcDbCircle
 10
44.65000000000003
 20
71.49999999999999
 40
2.5
100
AcDbArc
 50
180
 51
0
  0
LINE
  5
1D6
100
AcDbEntity
  8
openscad-box-screwsbase
  6
ByLayer
 62
  256
370
   -1
100
AcDbLine
 10
42.15000000000003
 20
73.99999999999999
 11
42.15000000000003
 21
71.50000329839739
  0
LINE
  5
1D7
100
AcDbEntity
  8
openscad-box-screwsbase
  6
ByLayer
 62
  256
370
   -1
100
AcDbLine
 10
47.15000000000003
 20
73.99999999999999
 11
47.15000000000003
 21
71.5000057696828
  0
ARC
  5
1D8
100
AcDbEntity
  8
openscad-box-screwsbase
  6
ByLayer
 62
  256
370
   -1
100
AcDbCircle
 10
44.65000000000003
 20
4.499999999999986
 40
2.5
100
AcDbArc
 50
0
 51
180
  0
LINE
  5
1D9
100
AcDbEntity
  8
openscad-box-screwsbase
  6
ByLayer
 62
  256
370
   -1
100
AcDbLine
 10
42.15000000000003
 20
1.999999999999986
 11
42.15000000000003
 21
4.499996701602583
  0
LINE
  5
1DA
100
AcDbEntity
  8
openscad-box-screwsbase
  6
ByLayer
 62
  256
370
   -1
100
AcDbLine
 10
47.15000000000003
 20
1.999999999999986
 11
47.15000000000003
 21
4.499994230317171
  0
LINE
  5
1DB
100
AcDbEntity
  8
openscad-box-screwsbase
  6
ByLayer
 62
  256
370
   -1
100
AcDbLine
 10
42.15000000000003
 20
73.99999999999999
 11
47.15000000000003
 21
73.99999999999999
  0
LINE
  5
1DC
100
AcDbEntity
  8
openscad-box-screwsbase
  6
ByLayer
 62
  256
370
   -1
100
AcDbLine
 10
42.15000000000003
 20
1.999999999999986
 11
47.15000000000003
 21
1.999999999999986
  0
CIRCLE
  5
1DD
100
AcDbEntity
  8
openscad-cover-screws
  6
ByLayer
 62
  256
370
   -1
100
AcDbCircle
 10
44.65000000000003
 20
71.5
 40
1
  0
CIRCLE
  5
1DE
100
AcDbEntity
  8
openscad-cover-screws
  6
ByLayer
 62
  256
370
   -1
100
AcDbCircle
 10
44.65000000000003
 20
4.499999999999993
 40
1
  0
LINE
  5
1DF
100
AcDbEntity
  8
0
  6
ByLayer
 62
  256
370
   -1
100
AcDbLine
 10
21.76241912152505
 20
215.37910886854
 11
21.76241912152505
 21
237.8791088685389
  0
LINE
  5
1E0
100
AcDbEntity
  8
camera
  6
ByLayer
 62
  256
370
   -1
100
AcDbLine
 10
19.36241912152506
 20
222.2291088685401
 11
19.36241912152506
 21
246.0911088685401
  0
LINE
  5
1E1
100
AcDbEntity
  8
camera
  6
ByLayer
 62
  256
370
   -1
100
AcDbLine
 10
18.16241912152506
 20
222.2291088685401
 11
18.16241912152506
 21
246.0911088685401
  0
LWPOLYLINE
  5
1E2
100
AcDbEntity
  8
camera
  6
ByLayer
 62
  256
370
   -1
100
AcDbPolyline
 90
    4
 70
    1
 43
0
 10
13.46241912152506
 20
236.2291088685401
 10
18.16241912152507
 20
236.2291088685401
 10
18.16241912152507
 20
227.7291088685401
 10
13.46241912152506
 20
227.7291088685401
  0
LWPOLYLINE
  5
1E3
100
AcDbEntity
  8
camera
  6
ByLayer
 62
  256
370
   -1
100
AcDbPolyline
 90
    4
 70
    1
 43
0
 10
19.36241912152506
 20
227.7291088685401
 10
21.76241912152505
 20
227.7291088685401
 10
21.76241912152505
 20
222.2291088685401
 10
19.36241912152506
 20
222.2291088685401
  0
LINE
  5
1E4
100
AcDbEntity
  8
camera
  6
ByLayer
 62
  256
370
   -1
100
AcDbLine
 10
18.16241912152506
 20
246.0911088685401
 11
19.36241912152506
 21
246.0911088685401
  0
LINE
  5
1E5
100
AcDbEntity
  8
camera
  6
ByLayer
 62
  256
370
   -1
100
AcDbLine
 10
18.16241912152506
 20
222.2291088685401
 11
19.36241912152506
 21
222.2291088685401
  0
LINE
  5
1E6
100
AcDbEntity
  8
camera
  6
ByLayer
 62
  256
370
   -1
100
AcDbLine
 10
18.16241912152507
 20
245.1911088685401
 11
19.36241912152506
 21
245.1911088685401
  0
LINE
  5
1E7
100
AcDbEntity
  8
camera
  6
ByLayer
 62
  256
370
   -1
100
AcDbLine
 10
18.16241912152507
 20
242.9911088685401
 11
19.36241912152506
 21
242.9911088685401
  0
LINE
  5
1E8
100
AcDbEntity
  8
camera
  6
ByLayer
 62
  256
370
   -1
100
AcDbLine
 10
18.16241912152506
 20
232.7911088685401
 11
19.36241912152506
 21
232.7911088685401
  0
LINE
  5
1E9
100
AcDbEntity
  8
camera
  6
ByLayer
 62
  256
370
   -1
100
AcDbLine
 10
18.16241912152506
 20
230.5911088685401
 11
19.36241912152506
 21
230.5911088685401
  0
LINE
  5
1EA
100
AcDbEntity
  8
chassis
  6
ByLayer
 62
  256
370
   -1
100
AcDbLine
 10
15.46241912152506
 20
227.6911088685401
 11
18.16241912152506
 21
227.6911088685401
  0
LINE
  5
1EB
100
AcDbEntity
  8
chassis
  6
ByLayer
 62
  256
370
   -1
100
AcDbLine
 10
15.46241912152506
 20
245.0911088685401
 11
18.16241912152506
 21
245.0911088685401
  0
LINE
  5
1EC
100
AcDbEntity
  8
chassis
  6
ByLayer
 62
  256
370
   -1
100
AcDbLine
 10
15.46241912152506
 20
243.0911088685401
 11
18.16241912152506
 21
243.0911088685401
  0
LINE
  5
1ED
100
AcDbEntity
  8
chassis
  6
ByLayer
 62
  256
370
   -1
100
AcDbLine
 10
15.46241912152506
 20
232.6911088685401
 11
18.16241912152506
 21
232.6911088685401
  0
LINE
  5
1EE
100
AcDbEntity
  8
chassis
  6
ByLayer
 62
  256
370
   -1
100
AcDbLine
 10
15.46241912152506
 20
230.6911088685401
 11
18.16241912152506
 21
230.6911088685401
  0
LINE
  5
1EF
100
AcDbEntity
  8
chassis
  6
ByLayer
 62
  256
370
   -1
100
AcDbLine
 10
13.46241912152506
 20
237.2291088685401
 11
15.46241912152506
 21
237.2291088685401
  0
LINE
  5
1F0
100
AcDbEntity
  8
chassis
  6
ByLayer
 62
  256
370
   -1
100
AcDbLine
 10
15.46241912152506
 20
226.7291088685401
 11
13.46241912152506
 21
226.7291088685401
  0
LINE
  5
1F1
100
AcDbEntity
  8
chassis
  6
ByLayer
 62
  256
370
   -1
100
AcDbLine
 10
36.56241912152335
 20
238.3791088685362
 11
36.56241912152335
 21
243.2791088685389
  0
LINE
  5
1F2
100
AcDbEntity
  8
chassis
  6
ByLayer
 62
  256
370
   -1
100
AcDbLine
 10
36.56241912152335
 20
243.2791088685389
 11
15.46241912152506
 21
243.2791088685389
  0
LINE
  5
1F3
100
AcDbEntity
  8
chassis
  6
ByLayer
 62
  256
370
   -1
100
AcDbLine
 10
15.46241912152506
 20
238.3791088685362
 11
36.56241912152335
 21
238.3791088685362
  0
LINE
  5
1F4
100
AcDbEntity
  8
0
  6
ByLayer
 62
  256
370
   -1
100
AcDbLine
 10
31.31241912152334
 20
209.6791088685401
 11
36.56241912152335
 21
209.6791088685401
  0
LINE
  5
1F5
100
AcDbEntity
  8
chassis
  6
ByLayer
 62
  256
370
   -1
100
AcDbLine
 10
36.56241912152335
 20
214.87910886854
 11
36.56241912152335
 21
209.6791088685401
  0
LINE
  5
1F6
100
AcDbEntity
  8
chassis
  6
ByLayer
 62
  256
370
   -1
100
AcDbLine
 10
15.46241912152506
 20
214.87910886854
 11
36.56241912152335
 21
214.87910886854
  0
LINE
  5
1F7
100
AcDbEntity
  8
0
  6
ByLayer
 62
  256
370
   -1
100
AcDbLine
 10
18.16241912152506
 20
247.0911088685401
 11
19.36241912152506
 21
247.0911088685401
  0
LINE
  5
1F8
100
AcDbEntity
  8
chassis
  6
ByLayer
 62
  256
370
   -1
100
AcDbLine
 10
18.16241912152506
 20
247.0911088685401
 11
18.16241912152506
 21
227.6911088685401
  0
LINE
  5
1F9
100
AcDbEntity
  8
0
  6
ByLayer
 62
  256
370
   -1
100
AcDbLine
 10
39.56241912152335
 20
237.8791088685389
 11
39.56241912152335
 21
215.37910886854
  0
LINE
  5
1FA
100
AcDbEntity
  8
chassis
  6
ByLayer
 62
  256
370
   -1
100
AcDbLine
 10
39.56241912152335
 20
209.6791088685401
 11
15.46241912152506
 21
209.6791088685401
  0
LINE
  5
1FB
100
AcDbEntity
  8
chassis
  6
ByLayer
 62
  256
370
   -1
100
AcDbLine
 10
41.56241912152336
 20
207.6791088685401
 11
13.46241912152506
 21
207.6791088685401
  0
LINE
  5
1FC
100
AcDbEntity
  8
chassis
  6
ByLayer
 62
  256
370
   -1
100
AcDbLine
 10
39.56241912152335
 20
213.6791088685401
 11
15.46241912152506
 21
213.6791088685401
  0
LINE
  5
1FD
100
AcDbEntity
  8
chassis2
  6
ByLayer
 62
  256
370
   -1
100
AcDbLine
 10
17.16241912152388
 20
238.4791088685401
 11
44.16241912152385
 21
238.4791088685401
  0
LINE
  5
1FE
100
AcDbEntity
  8
chassis2
  6
ByLayer
 62
  256
370
   -2
100
AcDbLine
 10
21.16241912152613
 20
231.9791088685401
 11
22.66241912152613
 21
228.9791088685401
  0
LINE
  5
1FF
100
AcDbEntity
  8
chassis2
  6
ByLayer
 62
  256
370
   -2
100
AcDbLine
 10
22.66241912152612
 20
228.9791088685401
 11
17.16241912152388
 21
228.9791088685401
  0
LINE
  5
200
100
AcDbEntity
  8
chassis2
  6
ByLayer
 62
  256
370
   -2
100
AcDbLine
 10
40.16241912152167
 20
231.9791088685416
 11
38.66241912152214
 21
228.9791088685414
  0
LINE
  5
201
100
AcDbEntity
  8
chassis2
  6
ByLayer
 62
  256
370
   -2
100
AcDbLine
 10
38.66241912152215
 20
228.9791088685414
 11
44.16241912152439
 21
228.9791088685423
  0
LINE
  5
202
100
AcDbEntity
  8
chassis2
  6
ByLayer
 62
  256
370
   -1
100
AcDbLine
 10
40.16241912152089
 20
231.9791088685401
 11
21.16241912152613
 21
231.9791088685401
  0
LINE
  5
203
100
AcDbEntity
  8
chassis2
  6
ByLayer
 62
  256
370
   -1
100
AcDbLine
 10
17.16241912152388
 20
238.4791088685401
 11
17.16241912152388
 21
184.7953426844665
  0
LINE
  5
204
100
AcDbEntity
  8
chassis2
  6
ByLayer
 62
  256
370
   -1
100
AcDbLine
 10
44.16241912152385
 20
238.4791088685401
 11
44.16241912152385
 21
184.7953426844665
  0
ARC
  5
205
100
AcDbEntity
  8
chassis2
  6
ByLayer
 62
  256
370
   -1
100
AcDbCircle
 10
30.66241912152386
 20
217.37910886854
 40
2.499999999999994
100
AcDbArc
 50
183.4350265864829
 51
356.5649734135179
  0
LINE
  5
206
100
AcDbEntity
  8
chassis2
  6
ByLayer
 62
  256
370
   -1
100
AcDbLine
 10
28.16691065734451
 20
217.2293173293625
 11
27.42235789959745
 21
229.6334739271744
  0
LINE
  5
207
100
AcDbEntity
  8
chassis2
  6
ByLayer
 62
  256
370
   -1
100
AcDbLine
 10
33.15792758570323
 20
217.2293173293625
 11
33.90248034345009
 21
229.6334739271734
  0
ARC
  5
208
100
AcDbEntity
  8
chassis2
  6
ByLayer
 62
  256
370
   -1
100
AcDbCircle
 10
30.66241912152386
 20
231.9791088685401
 40
3.999999999998782
100
AcDbArc
 50
324.0974268304626
 51
215.9025731695243
  0
LINE
  5
209
100
AcDbEntity
  8
chassis
  6
ByLayer
 62
  256
370
   -1
100
AcDbLine
 10
164.95
 20
238.3791088685401
 11
166.95
 21
238.3791088685401
  0
LINE
  5
20A
100
AcDbEntity
  8
chassis
  6
ByLayer
 62
  256
370
   -1
100
AcDbLine
 10
166.95
 20
222.6791088685401
 11
164.95
 21
222.6791088685401
  0
LWPOLYLINE
  5
20B
100
AcDbEntity
  8
chassis
  6
ByLayer
 62
  256
370
   -1
100
AcDbPolyline
 90
    4
 70
    1
 43
0
 10
164.95
 20
238.3791088685401
 10
158.65
 20
238.3791088685401
 10
158.65
 20
243.2791088685401
 10
164.95
 20
243.2791088685401
  0
LINE
  5
20C
100
AcDbEntity
  8
chassis
  6
ByLayer
 62
  256
370
   -1
100
AcDbLine
 10
158.65
 20
239.2791088685401
 11
163.65
 21
239.2791088685401
  0
LINE
  5
20D
100
AcDbEntity
  8
chassis
  6
ByLayer
 62
  256
370
   -1
100
AcDbLine
 10
158.65
 20
241.27910886854
 11
163.65
 21
241.27910886854
  0
LINE
  5
20E
100
AcDbEntity
  8
chassis
  6
ByLayer
 62
  256
370
   -1
100
AcDbLine
 10
163.65
 20
239.27910886854
 11
163.65
 21
241.27910886854
  0
LWPOLYLINE
  5
20F
100
AcDbEntity
  8
chassis
  6
ByLayer
 62
  256
370
   -1
100
AcDbPolyline
 90
    4
 70
    1
 43
0
 10
158.65
 20
211.9791088685401
 10
163.65
 20
211.9791088685401
 10
163.65
 20
213.9791088685401
 10
158.65
 20
213.9791088685401
  0
LWPOLYLINE
  5
210
100
AcDbEntity
  8
servo1
  6
ByLayer
 62
  256
370
   -1
100
AcDbPolyline
 90
    4
 70
    1
 43
0
 10
162.95
 20
237.8791088685401
 10
166.95
 20
237.8791088685401
 10
166.95
 20
223.1791088685401
 10
162.95
 20
223.1791088685401
  0
LINE
  5
211
100
AcDbEntity
  8
servo1
  6
ByLayer
 62
  256
370
   -1
100
AcDbLine
 10
140.25
 20
223.1791088685401
 11
140.25
 21
237.8791088685401
  0
LWPOLYLINE
  5
212
100
AcDbEntity
  8
servo1
  6
ByLayer
 62
  256
370
   -1
100
AcDbPolyline
 90
    4
 70
    1
 43
0
 10
140.25
 20
237.8791088685401
 10
162.95
 20
237.8791088685401
 10
162.95
 20
215.3791088685401
 10
140.25
 20
215.3791088685401
  0
LWPOLYLINE
  5
213
100
AcDbEntity
  8
servo1
  6
ByLayer
 62
  256
370
   -1
100
AcDbPolyline
 90
    4
 70
    1
 43
0
 10
156.15
 20
242.5791088685401
 10
158.65
 20
242.5791088685401
 10
158.65
 20
237.8791088685401
 10
156.15
 20
237.8791088685401
  0
LWPOLYLINE
  5
214
100
AcDbEntity
  8
servo1
  6
ByLayer
 62
  256
370
   -1
100
AcDbPolyline
 90
    4
 70
    1
 43
0
 10
156.15
 20
215.3791088685401
 10
158.65
 20
215.3791088685401
 10
158.65
 20
210.6791088685401
 10
156.15
 20
210.6791088685401
  0
LINE
  5
215
100
AcDbEntity
  8
servo1
  6
ByLayer
 62
  256
370
   -1
100
AcDbLine
 10
156.15
 20
241.2791088685401
 11
158.65
 21
241.2791088685401
  0
LINE
  5
216
100
AcDbEntity
  8
servo1
  6
ByLayer
 62
  256
370
   -1
100
AcDbLine
 10
156.15
 20
239.2791088685401
 11
158.65
 21
239.2791088685401
  0
LINE
  5
217
100
AcDbEntity
  8
servo1
  6
ByLayer
 62
  256
370
   -1
100
AcDbLine
 10
158.65
 20
213.9791088685401
 11
156.15
 21
213.9791088685401
  0
LINE
  5
218
100
AcDbEntity
  8
servo1
  6
ByLayer
 62
  256
370
   -1
100
AcDbLine
 10
158.65
 20
211.9791088685401
 11
156.15
 21
211.9791088685401
  0
LWPOLYLINE
  5
219
100
AcDbEntity
  8
servo1
  6
ByLayer
 62
  256
370
   -1
100
AcDbPolyline
 90
    4
 70
    1
 43
0
 10
166.95
 20
234.2791088685401
 10
170.15
 20
234.2791088685401
 10
170.15
 20
229.6791088685401
 10
166.95
 20
229.6791088685401
  0
LINE
  5
21A
100
AcDbEntity
  8
servo1
  6
ByLayer
 62
  256
370
   -1
100
AcDbLine
 10
167.95
 20
235.4791088685401
 11
171.95
 21
235.4791088685401
  0
LINE
  5
21B
100
AcDbEntity
  8
servo1
  6
ByLayer
 62
  256
370
   -1
100
AcDbLine
 10
167.95
 20
235.4791088685401
 11
167.95
 21
228.4791088685401
  0
LINE
  5
21C
100
AcDbEntity
  8
servo1
  6
ByLayer
 62
  256
370
   -1
100
AcDbLine
 10
171.95
 20
235.4791088685401
 11
171.95
 21
215.3791088685401
  0
LINE
  5
21D
100
AcDbEntity
  8
servo1
  6
ByLayer
 62
  256
370
   -1
100
AcDbLine
 10
167.95
 20
228.4791088685401
 11
170.45
 21
228.4791088685401
  0
LINE
  5
21E
100
AcDbEntity
  8
servo1
  6
ByLayer
 62
  256
370
   -1
100
AcDbLine
 10
170.45
 20
228.4791088685401
 11
170.45
 21
215.3791088685401
  0
LINE
  5
21F
100
AcDbEntity
  8
servo1
  6
ByLayer
 62
  256
370
   -1
100
AcDbLine
 10
170.45
 20
215.3791088685401
 11
171.95
 21
215.3791088685401
  0
LINE
  5
220
100
AcDbEntity
  8
0
  6
ByLayer
 62
  256
370
   -1
100
AcDbLine
 10
144.15
 20
231.9791088685401
 11
121.35
 21
231.9791088685401
  0
LWPOLYLINE
  5
221
100
AcDbEntity
  8
chassis
  6
ByLayer
 62
  256
370
   -1
100
AcDbPolyline
 90
    4
 70
    1
 43
0
 10
116.35
 20
235.4791088685401
 10
121.35
 20
235.4791088685401
 10
121.35
 20
228.4791088685401
 10
116.35
 20
228.4791088685401
  0
LINE
  5
222
100
AcDbEntity
  8
chassis
  6
ByLayer
 62
  256
370
   -1
100
AcDbLine
 10
164.95
 20
209.6791088685401
 11
125.15
 21
209.6791088685401
  0
LINE
  5
223
100
AcDbEntity
  8
chassis
  6
ByLayer
 62
  256
370
   -1
100
AcDbLine
 10
123.35
 20
209.6791088685401
 11
125.35
 21
209.6791088685401
  0
CIRCLE
  5
224
100
AcDbEntity
  8
chassis
  6
ByLayer
 62
  256
370
   -1
100
AcDbCircle
 10
126.35
 20
212.67910886854
 40
1
  0
LINE
  5
225
100
AcDbEntity
  8
chassis
  6
ByLayer
 62
  256
370
   -1
100
AcDbLine
 10
126.35
 20
215.6791088685362
 11
123.3500000000001
 21
215.6791088685401
  0
LINE
  5
226
100
AcDbEntity
  8
chassis
  6
ByLayer
 62
  256
370
   -1
100
AcDbLine
 10
129.35
 20
209.6791088685401
 11
129.3499999999892
 21
212.67910886854
  0
ARC
  5
227
100
AcDbEntity
  8
chassis
  6
ByLayer
 62
  256
370
   -1
100
AcDbCircle
 10
126.35
 20
212.67910886854
 40
2.999999999996163
100
AcDbArc
 50
360
 51
90
  0
LINE
  5
228
100
AcDbEntity
  8
chassis
  6
ByLayer
 62
  256
370
   -1
100
AcDbLine
 10
166.95
 20
207.6791088685401
 11
121.35
 21
207.6791088685401
  0
LINE
  5
229
100
AcDbEntity
  8
chassis
  6
ByLayer
 62
  256
370
   -1
100
AcDbLine
 10
158.65
 20
214.8791088685401
 11
164.95
 21
214.8791088685401
  0
LINE
  5
22A
100
AcDbEntity
  8
chassis
  6
ByLayer
 62
  256
370
   -1
100
AcDbLine
 10
158.65
 20
209.6791088685401
 11
158.65
 21
214.8791088685401
  0
LINE
  5
22B
100
AcDbEntity
  8
chassis
  6
ByLayer
 62
  256
370
   -1
100
AcDbLine
 10
164.95
 20
214.8791088685401
 11
164.95
 21
209.6791088685401
  0
LINE
  5
22C
100
AcDbEntity
  8
0
  6
ByLayer
 62
  256
370
   -1
100
AcDbLine
 10
154.65
 20
247.0911088685401
 11
133.65
 21
247.0911088685401
  0
LINE
  5
22D
100
AcDbEntity
  8
chassis
  6
ByLayer
 62
  256
370
   -1
100
AcDbLine
 10
164.95
 20
247.0911088685401
 11
164.95
 21
249.0911088685401
  0
CIRCLE
  5
22E
100
AcDbEntity
  8
chassis
  6
ByLayer
 62
  256
370
   -1
100
AcDbCircle
 10
161.9500000000001
 20
246.0911088685401
 40
1
  0
LINE
  5
22F
100
AcDbEntity
  8
chassis
  6
ByLayer
 62
  256
370
   -1
100
AcDbLine
 10
158.9500000000039
 20
246.0911088685401
 11
158.95
 21
249.09110886854
  0
LINE
  5
230
100
AcDbEntity
  8
chassis
  6
ByLayer
 62
  256
370
   -1
100
AcDbLine
 10
164.95
 20
243.0911088685401
 11
161.9500000000001
 21
243.0911088685509
  0
ARC
  5
231
100
AcDbEntity
  8
chassis
  6
ByLayer
 62
  256
370
   -1
100
AcDbCircle
 10
161.9500000000001
 20
246.0911088685401
 40
2.999999999996163
100
AcDbArc
 50
180
 51
270
  0
LINE
  5
232
100
AcDbEntity
  8
chassis
  6
ByLayer
 62
  256
370
   -1
100
AcDbLine
 10
121.35
 20
251.0911088685401
 11
166.95
 21
251.0911088685401
  0
LINE
  5
233
100
AcDbEntity
  8
chassis
  6
ByLayer
 62
  256
370
   -1
100
AcDbLine
 10
164.95
 20
249.0911088685401
 11
123.35
 21
249.0911088685401
  0
LINE
  5
234
100
AcDbEntity
  8
chassis
  6
ByLayer
 62
  256
370
   -1
100
AcDbLine
 10
125.35
 20
247.0911088685401
 11
164.95
 21
247.0911088685401
  0
LINE
  5
235
100
AcDbEntity
  8
chassis
  6
ByLayer
 62
  256
370
   -1
100
AcDbLine
 10
121.35
 20
207.6791088685401
 11
121.35
 21
251.0911088685401
  0
LINE
  5
236
100
AcDbEntity
  8
chassis
  6
ByLayer
 62
  256
370
   -1
100
AcDbLine
 10
166.95
 20
251.0911088685401
 11
166.95
 21
207.6791088685401
  0
LINE
  5
237
100
AcDbEntity
  8
chassis
  6
ByLayer
 62
  256
370
   -1
100
AcDbLine
 10
123.35
 20
209.6791088685401
 11
123.3500000000001
 21
249.0911088685401
  0
LINE
  5
238
100
AcDbEntity
  8
chassis
  6
ByLayer
 62
  256
370
   -1
100
AcDbLine
 10
164.95
 20
249.0911088685401
 11
164.95
 21
209.6791088685401
  0
LINE
  5
239
100
AcDbEntity
  8
chassis
  6
ByLayer
 62
  256
370
   -1
100
AcDbLine
 10
125.35
 20
209.6791088685401
 11
125.35
 21
247.0911088685401
  0
LINE
  5
23A
100
AcDbEntity
  8
chassis
  6
ByLayer
 62
  256
370
   -1
100
AcDbLine
 10
129.65
 20
247.0911088685401
 11
129.65
 21
231.6911088685401
  0
LINE
  5
23B
100
AcDbEntity
  8
chassis
  6
ByLayer
 62
  256
370
   -1
100
AcDbLine
 10
137.65
 20
247.0911088685401
 11
137.65
 21
231.6911088685401
  0
LINE
  5
23C
100
AcDbEntity
  8
chassis
  6
ByLayer
 62
  256
370
   -1
100
AcDbLine
 10
150.65
 20
247.0911088685401
 11
150.65
 21
231.6911088685401
  0
LINE
  5
23D
100
AcDbEntity
  8
chassis
  6
ByLayer
 62
  256
370
   -1
100
AcDbLine
 10
158.65
 20
231.6911088685401
 11
158.65
 21
247.0911088685401
  0
LINE
  5
23E
100
AcDbEntity
  8
chassis
  6
ByLayer
 62
  256
370
   -1
100
AcDbLine
 10
15.46241912152506
 20
249.0911088685401
 11
39.56241912152335
 21
249.0911088685401
  0
LINE
  5
23F
100
AcDbEntity
  8
chassis
  6
ByLayer
 62
  256
370
   -1
100
AcDbLine
 10
13.46241912152506
 20
251.0911088685401
 11
41.56241912152334
 21
251.0911088685401
  0
LINE
  5
240
100
AcDbEntity
  8
chassis
  6
ByLayer
 62
  256
370
   -1
100
AcDbLine
 10
13.46241912152506
 20
207.6791088685401
 11
13.46241912152506
 21
251.0911088685401
  0
LINE
  5
241
100
AcDbEntity
  8
chassis
  6
ByLayer
 62
  256
370
   -1
100
AcDbLine
 10
41.56241912152334
 20
251.0911088685401
 11
41.56241912152336
 21
207.6791088685401
  0
LINE
  5
242
100
AcDbEntity
  8
chassis
  6
ByLayer
 62
  256
370
   -1
100
AcDbLine
 10
15.46241912152506
 20
209.6791088685401
 11
15.46241912152506
 21
249.0911088685401
  0
LINE
  5
243
100
AcDbEntity
  8
chassis
  6
ByLayer
 62
  256
370
   -1
100
AcDbLine
 10
39.56241912152335
 20
249.0911088685401
 11
39.56241912152335
 21
209.6791088685401
  0
LINE
  5
244
100
AcDbEntity
  8
chassis
  6
ByLayer
 62
  256
370
   -1
100
AcDbLine
 10
15.46241912152506
 20
247.0911088685401
 11
20.46241912152506
 21
247.0911088685401
  0
LINE
  5
245
100
AcDbEntity
  8
chassis
  6
ByLayer
 62
  256
370
   -1
100
AcDbLine
 10
20.46241912152506
 20
209.6791088685401
 11
20.46241912152506
 21
249.0911088685401
  0
LINE
  5
246
100
AcDbEntity
  8
chassis
  6
ByLayer
 62
  256
370
   -1
100
AcDbLine
 10
15.46241912152507
 20
245.0911088685401
 11
39.56241912152336
 21
245.0911088685401
  0
ENDSEC
  0
SECTION
  2
OBJECTS
  0
DICTIONARY
  5
C
330
0
100
AcDbDictionary
281
    1
  3
ACAD_GROUP
350
D
  0
DICTIONARY
  5
D
330
C
100
AcDbDictionary
281
    1
  0
ENDSEC
  0
EOF
